<svg xmlns="http://www.w3.org/2000/svg" xmlns:xlink="http://www.w3.org/1999/xlink" width="472" height="392" viewBox="0 0 472 392">
  <defs>
    <clipPath id="clip-path">
      <rect id="Rectangle_42" data-name="Rectangle 42" width="472" height="392" transform="translate(229 1233)" fill="#fff" stroke="#707070" stroke-width="1"/>
    </clipPath>
    <clipPath id="clip-path-2">
      <rect id="SVGID" width="472" height="472" transform="translate(0 0)" fill="none"/>
    </clipPath>
  </defs>
  <g id="Mask_Group_1" data-name="Mask Group 1" transform="translate(-229 -1233)" clip-path="url(#clip-path)">
    <g id="Group_43" data-name="Group 43" transform="translate(229.26 1152.504)">
      <g id="Group_42" data-name="Group 42" transform="translate(-0.26 0.496)" clip-path="url(#clip-path-2)">
        <g id="Group_27" data-name="Group 27" transform="translate(212.88 169.648)">
          <path id="Rectangle_12" data-name="Rectangle 12" d="M14.926,0h91.13a14.925,14.925,0,0,1,14.925,14.925V210.691a14.925,14.925,0,0,1-14.925,14.925H14.925A14.925,14.925,0,0,1,0,210.691V14.926A14.926,14.926,0,0,1,14.926,0Z" fill="#fff" stroke="#2e3192" stroke-miterlimit="10" stroke-width="2"/>
          <path id="Rectangle_13" data-name="Rectangle 13" d="M4.391,0H93.658a4.39,4.39,0,0,1,4.39,4.39V175.633a4.39,4.39,0,0,1-4.39,4.39H4.39A4.39,4.39,0,0,1,0,175.633V4.391A4.391,4.391,0,0,1,4.391,0Z" transform="translate(11.466 17.897)" fill="#a8e6ce" stroke="#2e3192" stroke-miterlimit="10" stroke-width="2"/>
          <path id="Path_15" data-name="Path 15" d="M297,402.918a8.61,8.61,0,1,1-8.61-8.609A8.609,8.609,0,0,1,297,402.918Z" transform="translate(-227.9 -191.961)" fill="#a8e6ce" stroke="#2e3192" stroke-miterlimit="10" stroke-width="2"/>
          <path id="Path_16" data-name="Path 16" d="M300.178,189.52a1.968,1.968,0,0,1-1.968,1.969H278.18a1.969,1.969,0,0,1-1.969-1.969h0a1.968,1.968,0,0,1,1.969-1.968h20.03a1.968,1.968,0,0,1,1.968,1.968Z" transform="translate(-227.704 -180.576)" fill="#a8e6ce" stroke="#2e3192" stroke-miterlimit="10" stroke-width="2"/>
        </g>
        <g id="Group_29" data-name="Group 29" transform="translate(247.706 301.58)">
          <g id="Group_28" data-name="Group 28" transform="translate(119.892 31.275)">
            <path id="Path_17" data-name="Path 17" d="M494.889,444.4c-8.446-12.144-27.532-21.344-26.006-33.369s18.541-23.08,9.66-37.872c-5.063-8.431-9.938-6.046-8.965-.856a23.491,23.491,0,0,1-4.36,18.127c2.715-21.6-3.716-28.358-8.808-33.164-7.734-7.3-18.4-5.3-9.95,4.751,7.644,9.092,5.845,24.27,4.968,27.022-5.177-22.308-17.983-29.057-26.861-30.774s-16.276,7.629-2.449,12.4,19.161,20.479,13.816,31.23-21.188,14.321-30.594,5.539-5.647-15.255-12.614-16.335-5.523,19.34,7.714,28.4,42.692,21.835,58.777,49.258C476.765,457.3,494.889,444.4,494.889,444.4Z" transform="translate(-388.612 -352.887)" fill="#fad9cd" stroke="#2e3192" stroke-miterlimit="10" stroke-width="2"/>
            <path id="Path_18" data-name="Path 18" d="M563.249,534.262c-11.157-31.155-34.578-75.176-61.009-99.223-11.588,12.562-44.227,39.526-44.227,39.526,11.133,15.074,24.3,36.987,35.6,59.7Z" transform="translate(-392.434 -357.411)" fill="#006837" stroke="#2e3192" stroke-miterlimit="10" stroke-width="2"/>
            <path id="Path_19" data-name="Path 19" d="M458.93,357.573c-2.266,4.169-8.777,2.546-11.52-3.73" transform="translate(-391.85 -352.94)" fill="none" stroke="#2e3192" stroke-miterlimit="10" stroke-width="1"/>
            <path id="Path_20" data-name="Path 20" d="M484.135,375.5c-3.307,2.262-7.343-1.758-8.271-5.909" transform="translate(-393.417 -353.807)" fill="none" stroke="#2e3192" stroke-miterlimit="10" stroke-width="1"/>
            <path id="Path_21" data-name="Path 21" d="M424.793,358.784c1.514,3.3-2.657,8.108-8.368,4.7" transform="translate(-390.144 -353.212)" fill="none" stroke="#2e3192" stroke-miterlimit="10" stroke-width="1"/>
            <path id="Path_22" data-name="Path 22" d="M391.014,394.414c4.287,2.181,3.613,10.515-.9,12.7" transform="translate(-388.695 -355.174)" fill="none" stroke="#2e3192" stroke-miterlimit="10" stroke-width="1"/>
            <path id="Path_23" data-name="Path 23" d="M470.269,385.777c-.937,4.555-2.119,11.241-1.712,15.541" transform="translate(-393.01 -354.698)" fill="none" stroke="#2e3192" stroke-miterlimit="10" stroke-width="1"/>
            <path id="Path_24" data-name="Path 24" d="M453.56,386.641c1.144,2.918,1.775,12.648,1.564,13.511" transform="translate(-392.188 -354.746)" fill="none" stroke="#2e3192" stroke-miterlimit="10" stroke-width="1"/>
          </g>
          <path id="Path_25" data-name="Path 25" d="M273.14,355.565a5.7,5.7,0,1,1-5.7-5.7A5.7,5.7,0,0,1,273.14,355.565Z" transform="translate(-261.733 -321.446)" fill="#fff8e8" stroke="#2e3192" stroke-miterlimit="10" stroke-width="2"/>
          <path id="Path_26" data-name="Path 26" d="M268.537,359.612v9.955h60.977V319.79h54.755v47.7" transform="translate(-262.108 -319.79)" fill="none" stroke="#2e3192" stroke-linecap="round" stroke-linejoin="round" stroke-width="2" stroke-dasharray="7"/>
          <path id="Path_27" data-name="Path 27" d="M400.121,368.643c-12.577-11.653-32.626,8.412-.029,26.118,0,0,.02.025.029.017.011.008.031-.017.031-.017C432.75,377.055,412.7,356.99,400.121,368.643Z" transform="translate(-268.378 -322.29)" fill="#eb383f" stroke="#2e3192" stroke-miterlimit="10" stroke-width="2"/>
        </g>
        <g id="Group_32" data-name="Group 32" transform="translate(-39.188 149.343)">
          <g id="Group_30" data-name="Group 30">
            <path id="Path_28" data-name="Path 28" d="M34.249,209.834c13.827-5.253,34.774-2.071,40.305-12.857s-2.272-29.518,13.412-36.712c8.938-4.1,11.615.623,7.882,4.356a23.489,23.489,0,0,0-6.637,17.422c9.955-19.357,19.078-21.307,25.994-22.4,10.509-1.659,18.182,6.015,5.531,9.54-11.442,3.189-18.527,16.732-19.357,19.5,16.868-15.487,31.248-13.826,39.545-10.232s9.125,15.487-4.978,11.615-27.378,6.083-29.036,17.975,9.4,23.782,22.123,21.847,13.274-9.4,19.634-6.361-6.36,19.081-22.4,19.081-47.564-6.083-76.324,7.466C41.923,230.714,34.249,209.834,34.249,209.834Z" transform="translate(37.688 -158.681)" fill="#fad9cd" stroke="#2e3192" stroke-miterlimit="10" stroke-width="2"/>
            <path id="Path_29" data-name="Path 29" d="M-41.88,302.367c28.653-19.184,65.582-37.34,91.049-46.2,0,0-11.714-40.68-14.187-57.593-24.3,3.38-52.742,15.338-76.862,28.785Z" transform="translate(41.88 -160.878)" fill="#39b54a" stroke="#2e3192" stroke-miterlimit="10" stroke-width="2"/>
            <path id="Path_30" data-name="Path 30" d="M120.4,160.352c-.484,4.72,5.807,7.057,11.613,3.428" transform="translate(32.945 -158.773)" fill="none" stroke="#2e3192" stroke-miterlimit="10" stroke-width="1"/>
            <path id="Path_31" data-name="Path 31" d="M89.56,161.115c1.452,3.732,7.052,2.7,10.163-.208" transform="translate(34.642 -158.804)" fill="none" stroke="#2e3192" stroke-miterlimit="10" stroke-width="1"/>
            <path id="Path_32" data-name="Path 32" d="M148.061,180.551c-3.111,1.866-2.385,8.193,4.252,8.607" transform="translate(31.518 -159.885)" fill="none" stroke="#2e3192" stroke-miterlimit="10" stroke-width="1"/>
            <path id="Path_33" data-name="Path 33" d="M155.868,229.275c-4.771-.621-8.919,6.637-6.43,10.993" transform="translate(31.386 -162.566)" fill="none" stroke="#2e3192" stroke-miterlimit="10" stroke-width="1"/>
            <path id="Path_34" data-name="Path 34" d="M95.278,177.368c-1.8,4.287-4.6,10.474-7.363,13.793" transform="translate(34.733 -159.71)" fill="none" stroke="#2e3192" stroke-miterlimit="10" stroke-width="1"/>
            <path id="Path_35" data-name="Path 35" d="M108.575,187.575c-2.592,1.762-8.607,9.436-8.918,10.267" transform="translate(34.086 -160.272)" fill="none" stroke="#2e3192" stroke-miterlimit="10" stroke-width="1"/>
          </g>
          <g id="Group_31" data-name="Group 31" transform="translate(172.113 32.281)">
            <rect id="Rectangle_14" data-name="Rectangle 14" width="45.836" height="32.147" rx="3.512" fill="#ffdf9e" stroke="#2e3192" stroke-miterlimit="10" stroke-width="2"/>
            <path id="Path_36" data-name="Path 36" d="M140.416,195.382l20.428,20.428a3.319,3.319,0,0,0,4.693,0l20.427-20.426" transform="translate(-140.271 -192.983)" fill="none" stroke="#2e3192" stroke-miterlimit="10" stroke-width="2"/>
          </g>
          <path id="Path_37" data-name="Path 37" d="M192.062,209.074H209.9v68.255h91.717" transform="translate(28.998 -161.456)" fill="none" stroke="#2e3192" stroke-linecap="round" stroke-linejoin="round" stroke-width="2" stroke-dasharray="7"/>
          <path id="Path_38" data-name="Path 38" d="M314.87,281.513a5.7,5.7,0,1,1-5.7-5.7A5.7,5.7,0,0,1,314.87,281.513Z" transform="translate(22.863 -165.131)" fill="#fff8e8" stroke="#2e3192" stroke-miterlimit="10" stroke-width="2"/>
        </g>
        <g id="Group_35" data-name="Group 35" transform="translate(-29.267 318.782)">
          <g id="Group_33" data-name="Group 33" transform="translate(0 11.509)">
            <path id="Path_39" data-name="Path 39" d="M26.8,422.853c11.787-8.936,32.783-11.784,35.05-23.691s-10.494-27.683,2.528-39c7.421-6.452,11.319-2.675,8.789,1.957a23.5,23.5,0,0,0-1.46,18.588c4.1-21.378,12.3-25.819,18.631-28.816,9.616-4.553,19.14.649,7.994,7.6-10.081,6.285-13.064,21.274-13.081,24.161,11.823-19.611,26.088-22.07,35.061-20.957s13.119,12.288-1.505,12.546-24.554,13.548-22.8,25.426,15.721,20.172,27.38,14.73,10.088-12.761,17.048-11.635-.729,20.1-16.117,24.619-47.352,7.561-71.13,28.665C40.047,440.723,26.8,422.853,26.8,422.853Z" transform="translate(28.177 -350.173)" fill="#fad0af" stroke="#2e3192" stroke-miterlimit="10" stroke-width="2"/>
            <path id="Path_40" data-name="Path 40" d="M24.534,411.957c-18.746,8.457-38.584,23.52-55.915,39.77V547.8C-9.5,517.529,28.334,481.82,54.37,463.223,54.37,463.223,31.67,427.488,24.534,411.957Z" transform="translate(31.381 -353.576)" fill="#fff" stroke="#2e3192" stroke-miterlimit="10" stroke-width="2"/>
            <path id="Path_41" data-name="Path 41" d="M94.684,352.478c.866,4.665,7.559,5.137,12.108.018" transform="translate(24.439 -350.3)" fill="none" stroke="#2e3192" stroke-miterlimit="10" stroke-width="1"/>
            <path id="Path_42" data-name="Path 42" d="M65.311,361.731c2.445,3.174,7.526.6,9.693-3.061" transform="translate(26.057 -350.641)" fill="none" stroke="#2e3192" stroke-miterlimit="10" stroke-width="1"/>
            <path id="Path_43" data-name="Path 43" d="M126.96,364.038c-2.459,2.668.02,8.533,6.5,7.062" transform="translate(22.713 -350.937)" fill="none" stroke="#2e3192" stroke-miterlimit="10" stroke-width="1"/>
            <path id="Path_44" data-name="Path 44" d="M148.245,408.5c-4.753.747-6.687,8.881-3.073,12.358" transform="translate(21.762 -353.385)" fill="none" stroke="#2e3192" stroke-miterlimit="10" stroke-width="1"/>
            <path id="Path_45" data-name="Path 45" d="M75.6,375.763c-.518,4.619-1.462,11.345-3.181,15.308" transform="translate(25.665 -351.583)" fill="none" stroke="#2e3192" stroke-miterlimit="10" stroke-width="1"/>
            <path id="Path_46" data-name="Path 46" d="M91.176,381.784c-1.991,2.423-5.6,11.479-5.665,12.363" transform="translate(24.944 -351.914)" fill="none" stroke="#2e3192" stroke-miterlimit="10" stroke-width="1"/>
          </g>
          <g id="Group_34" data-name="Group 34" transform="translate(154.924 16.462)">
            <path id="Path_47" data-name="Path 47" d="M177.6,402.244c0,2.414-1.485,4.373-3.318,4.373H137.262c-1.833,0-3.319-1.959-3.319-4.373v-1.1c0-2.415,1.485-4.374,3.319-4.374h37.022c1.832,0,3.318,1.959,3.318,4.374Z" transform="translate(-132.647 -357.693)" fill="#ffdf9e" stroke="#2e3192" stroke-miterlimit="10" stroke-width="2"/>
            <path id="Path_48" data-name="Path 48" d="M175.127,400.78c-3.231,0-3.231-3.318-6.461-3.318s-3.232,3.318-6.462,3.318-3.233-3.318-6.464-3.318-3.233,3.318-6.463,3.318-3.233-3.318-6.466-3.318-3.234,3.318-6.468,3.318c-3.111,0-4.562-6.845,1.244-6.845s33.081.1,37.229.1S178.757,400.78,175.127,400.78Z" transform="translate(-132.629 -357.536)" fill="#a8e6ce" stroke="#2e3192" stroke-miterlimit="10" stroke-width="2"/>
            <path id="Path_49" data-name="Path 49" d="M177.6,390.537a3.551,3.551,0,0,1-3.318,3.745H137.262a3.551,3.551,0,0,1-3.319-3.745V389.6a3.552,3.552,0,0,1,3.319-3.745h37.022A3.552,3.552,0,0,1,177.6,389.6Z" transform="translate(-132.647 -357.091)" fill="#eb383f" stroke="#2e3192" stroke-miterlimit="10" stroke-width="2"/>
            <path id="Path_50" data-name="Path 50" d="M175.127,389.218c-3.231,0-3.231-3.319-6.461-3.319s-3.231,3.319-6.461,3.319-3.233-3.319-6.465-3.319-3.232,3.319-6.462,3.319-3.234-3.319-6.467-3.319-3.234,3.319-6.467,3.319c-3.111,0-4.562-6.843,1.244-6.843s33.081.1,37.229.1S178.757,389.218,175.127,389.218Z" transform="translate(-132.629 -356.9)" fill="#a8e6ce" stroke="#2e3192" stroke-miterlimit="10" stroke-width="2"/>
            <path id="Path_51" data-name="Path 51" d="M155.9,355.415c-.07,0-.139,0-.208.007s-.138-.007-.207-.007c-12.714,0-22.918,8.96-22.918,21.674,0,2.8,3.111,4.252,5.6,4.252h35.051c2.489,0,5.6-1.452,5.6-4.252C178.822,364.375,168.618,355.415,155.9,355.415Z" transform="translate(-132.571 -355.415)" fill="#ffdf9e" stroke="#2e3192" stroke-miterlimit="10" stroke-width="2"/>
          </g>
          <path id="Path_52" data-name="Path 52" d="M184.919,388.825h15.763V337.994H312.955v15.458" transform="translate(19.47 -337.994)" fill="none" stroke="#2e3192" stroke-linecap="round" stroke-linejoin="round" stroke-width="2" stroke-dasharray="7"/>
          <path id="Path_53" data-name="Path 53" d="M325.458,355.888a5.7,5.7,0,1,1-5.7-5.7A5.7,5.7,0,0,1,325.458,355.888Z" transform="translate(12.359 -338.665)" fill="#fff8e8" stroke="#2e3192" stroke-miterlimit="10" stroke-width="2"/>
        </g>
        <g id="Group_38" data-name="Group 38" transform="translate(270.335 110.339)">
          <g id="Group_36" data-name="Group 36" transform="translate(111.367)">
            <path id="Path_54" data-name="Path 54" d="M509.155,152.486c-14.214,4.1-29.058,19.215-39.957,13.908s-15.9-24.974-32.761-21.314c-9.61,2.086-8.917,7.47-3.691,8.215a23.487,23.487,0,0,1,15.766,9.951c-19.581-9.508-28.048-5.591-34.237-2.313-9.4,4.978-10.932,15.722,1.3,10.949,11.066-4.317,24.862,2.262,27.186,3.977-22.788-2.264-33.294,7.695-37.772,15.551s2,17.864,10.954,6.3,25.548-11.567,34.012-3.051,6.754,24.666-4.583,30.753-16.26.446-19.521,6.7,16.541,11.443,29.369,1.817,34.394-33.414,65.53-39.837C515.548,173.792,509.155,152.486,509.155,152.486Z" transform="translate(-403.538 -118.903)" fill="#a17350" stroke="#2e3192" stroke-miterlimit="10" stroke-width="2"/>
            <path id="Path_55" data-name="Path 55" d="M611.727,117.4c-32.927,1.16-79.235,9.23-109.132,25.779,8.173,15.01,23.222,54.581,23.222,54.581,22.115-7.062,55.169-13.71,85.91-16.606Z" transform="translate(-408.993 -117.404)" fill="#ff8f75" stroke="#2e3192" stroke-miterlimit="10" stroke-width="2"/>
            <path id="Path_56" data-name="Path 56" d="M414.492,162.69c3.219,3.484-.409,9.13-7.232,9.711" transform="translate(-403.743 -119.898)" fill="none" stroke="#2e3192" stroke-miterlimit="10" stroke-width="1"/>
            <path id="Path_57" data-name="Path 57" d="M439.564,144.8c1.079,3.857-4.024,6.389-8.254,5.934" transform="translate(-405.067 -118.913)" fill="none" stroke="#2e3192" stroke-miterlimit="10" stroke-width="1"/>
            <path id="Path_58" data-name="Path 58" d="M404.829,195.508c3.609-.373,6.825,5.122,1.766,9.437" transform="translate(-403.609 -121.704)" fill="none" stroke="#2e3192" stroke-miterlimit="10" stroke-width="1"/>
            <path id="Path_59" data-name="Path 59" d="M427.58,239.278c3.442-3.36,11.117-.044,11.74,4.933" transform="translate(-404.862 -124.04)" fill="none" stroke="#2e3192" stroke-miterlimit="10" stroke-width="1"/>
            <path id="Path_60" data-name="Path 60" d="M444.878,161.479c4.01,2.35,9.963,5.619,14.167,6.613" transform="translate(-405.814 -119.831)" fill="none" stroke="#2e3192" stroke-miterlimit="10" stroke-width="1"/>
            <path id="Path_61" data-name="Path 61" d="M440.295,177.679c3.132-.147,12.548,2.38,13.3,2.858" transform="translate(-405.562 -120.723)" fill="none" stroke="#2e3192" stroke-miterlimit="10" stroke-width="1"/>
          </g>
          <path id="Path_62" data-name="Path 62" d="M291.9,316.6V256.321H408.252V234.889" transform="translate(-286.023 -123.874)" fill="none" stroke="#2e3192" stroke-linecap="round" stroke-linejoin="round" stroke-width="2" stroke-dasharray="7"/>
          <circle id="Ellipse_1" data-name="Ellipse 1" cx="5.704" cy="5.704" r="5.704" transform="translate(0 189.413)" fill="#fff8e8" stroke="#2e3192" stroke-miterlimit="10" stroke-width="2"/>
          <g id="Group_37" data-name="Group 37" transform="translate(105.844 81.842)">
            <path id="Path_63" data-name="Path 63" d="M431.154,220.746a16.73,16.73,0,1,1-16.731-16.731A16.73,16.73,0,0,1,431.154,220.746Z" transform="translate(-397.693 -204.015)" fill="#fff" stroke="#2e3192" stroke-miterlimit="10" stroke-width="2"/>
            <path id="Path_64" data-name="Path 64" d="M414.438,228.275c-2.745,1.562-4.972.257-4.952-2.9l.05-8.12c.02-3.156,2.265-4.434,4.99-2.839l7.006,4.1c2.724,1.6,2.708,4.179-.037,5.74Z" transform="translate(-398.342 -204.55)" fill="#eb383f" stroke="#2e3192" stroke-miterlimit="10" stroke-width="2"/>
          </g>
        </g>
        <g id="Group_41" data-name="Group 41" transform="translate(238.256 -44.067)">
          <g id="Group_39" data-name="Group 39" transform="translate(26.247)">
            <path id="Path_65" data-name="Path 65" d="M339.976,25.778c-6.91,13.078-6.323,34.257-17.706,38.422s-29.016-5.877-38.081,8.8c-5.166,8.367-.809,11.6,3.355,8.357a23.5,23.5,0,0,1,18.106-4.45c-20.434,7.5-23.489,16.318-25.422,23.049-2.938,10.225,3.738,18.782,8.789,6.66C293.587,95.657,307.9,90.286,310.743,89.8c-17.44,14.839-17.558,29.316-15.007,37.989s14.25,10.959,12.137-3.513,9.4-26.423,21.4-26.61,22.45,12.251,18.966,24.637-10.961,12.019-8.723,18.7,19.717-3.971,21.685-19.888-.2-47.952,16.78-74.829C359.757,35.957,339.976,25.778,339.976,25.778Z" transform="translate(-279.509 42.047)" fill="#cf9970" stroke="#2e3192" stroke-miterlimit="10" stroke-width="2"/>
            <path id="Path_66" data-name="Path 66" d="M365.5-46c-15.842,21.941-30.59,47.958-36.769,71.062,16.482,4.528,55.419,21.149,55.419,21.149,13.1-26.594,39.059-65.56,63.745-92.21Z" transform="translate(-282.219 46)" fill="#fff" stroke="#2e3192" stroke-miterlimit="10" stroke-width="2"/>
            <path id="Path_67" data-name="Path 67" d="M280.859,104.837c4.743.1,6.292,6.629,1.975,11.946" transform="translate(-279.583 37.694)" fill="none" stroke="#2e3192" stroke-miterlimit="10" stroke-width="1"/>
            <path id="Path_68" data-name="Path 68" d="M285.327,74.326c3.528,1.9,1.81,7.33-1.452,10.061" transform="translate(-279.749 39.374)" fill="none" stroke="#2e3192" stroke-miterlimit="10" stroke-width="1"/>
            <path id="Path_69" data-name="Path 69" d="M297.5,134.79c2.236-2.857,8.425-1.362,8.022,5.276" transform="translate(-280.5 36.121)" fill="none" stroke="#2e3192" stroke-miterlimit="10" stroke-width="1"/>
            <path id="Path_70" data-name="Path 70" d="M344.858,148.55c-.032-4.812,7.682-8.037,11.7-5.031" transform="translate(-283.108 35.628)" fill="none" stroke="#2e3192" stroke-miterlimit="10" stroke-width="1"/>
            <path id="Path_71" data-name="Path 71" d="M300.778,82.092c4.475-1.258,10.958-3.278,14.593-5.615" transform="translate(-280.68 39.256)" fill="none" stroke="#2e3192" stroke-miterlimit="10" stroke-width="1"/>
            <path id="Path_72" data-name="Path 72" d="M309.264,96.517c2.068-2.357,10.422-7.384,11.284-7.591" transform="translate(-281.148 38.57)" fill="none" stroke="#2e3192" stroke-miterlimit="10" stroke-width="1"/>
          </g>
          <path id="Path_73" data-name="Path 73" d="M321.563,158v76.664H258.1v61.115" transform="translate(-252.083 34.766)" fill="none" stroke="#2e3192" stroke-linecap="round" stroke-linejoin="round" stroke-width="2" stroke-dasharray="7"/>
          <path id="Path_74" data-name="Path 74" d="M263.14,303.659a5.7,5.7,0,1,1-5.7-5.7A5.7,5.7,0,0,1,263.14,303.659Z" transform="translate(-251.732 27.06)" fill="#fff8e8" stroke="#2e3192" stroke-miterlimit="10" stroke-width="2"/>
          <g id="Group_40" data-name="Group 40" transform="translate(35.429 159.303)">
            <path id="Path_75" data-name="Path 75" d="M339.489,135.066a12.479,12.479,0,1,1-12.479-12.479A12.479,12.479,0,0,1,339.489,135.066Z" transform="translate(-290.62 -122.587)" fill="#ffd754" stroke="#2e3192" stroke-miterlimit="10" stroke-width="2"/>
            <path id="Path_76" data-name="Path 76" d="M342.414,150.593a7.19,7.19,0,0,0-7.145-7.233,7.049,7.049,0,0,0-4.061,1.285,10.408,10.408,0,0,0,.06-1.1A10.178,10.178,0,0,0,311.2,141a6.566,6.566,0,0,0-5.38-2.817,6.639,6.639,0,0,0-6.567,5.949,7.231,7.231,0,0,0-2.692-.522,7.38,7.38,0,0,0-7.334,7.426c0,6.962,5.366,7.341,8.383,7.341h37.153A7.714,7.714,0,0,0,342.414,150.593Z" transform="translate(-289.226 -123.172)" fill="#fff" stroke="#2e3192" stroke-linecap="round" stroke-linejoin="round" stroke-width="2"/>
          </g>
        </g>
      </g>
    </g>
  </g>
</svg>
