<svg xmlns="http://www.w3.org/2000/svg" viewBox="0 0 74.94 74.94"><g id="Layer_2" data-name="Layer 2"><g id="Objects"><path d="M32.14,48.86a6.66,6.66,0,0,0,2.73-1.21,6.77,6.77,0,0,0,1.71-1.9,7.06,7.06,0,0,0,1.08-3.86,6.47,6.47,0,0,0-.94-3.54,5.42,5.42,0,0,0-2.79-2.13,5.78,5.78,0,0,0,1.84-1.38,5.4,5.4,0,0,0,1.12-3.56,6.1,6.1,0,0,0-1.11-3.68c-1.23-1.68-3.32-2.53-6.26-2.58H17.84V49.19H28.73A16.65,16.65,0,0,0,32.14,48.86ZM22.66,29.22h5.25a8.88,8.88,0,0,1,2.86.38,2.16,2.16,0,0,1,1.3,2.23,2.29,2.29,0,0,1-1,2.12,4.88,4.88,0,0,1-2.56.6H22.66Zm0,15.77V38.55H28.6A6.14,6.14,0,0,1,31,39a2.59,2.59,0,0,1,1.54,2.59,3.06,3.06,0,0,1-1.59,3,5.77,5.77,0,0,1-2.45.42Z"/><path d="M41.75,47.6a9.79,9.79,0,0,0,6.3,2.2,8.67,8.67,0,0,0,6.72-2.61A5.81,5.81,0,0,0,56.5,44H51.73a4.11,4.11,0,0,1-1,1.23,4,4,0,0,1-2.6.82,4.8,4.8,0,0,1-2.57-.67,4.31,4.31,0,0,1-1.87-3.78h13A22.47,22.47,0,0,0,56.59,38a8.86,8.86,0,0,0-1.42-3.7,7.27,7.27,0,0,0-3.09-2.64,10.16,10.16,0,0,0-4.2-.84,8.62,8.62,0,0,0-6.39,2.48C39.85,35,39,37.35,39,40.44,39,43.75,39.93,46.13,41.75,47.6Zm3.34-11.88a3.71,3.71,0,0,1,2.79-1,4.1,4.1,0,0,1,2.77,1,3.89,3.89,0,0,1,1.25,2.82H43.84A4.85,4.85,0,0,1,45.09,35.72Z"/><rect x="42.32" y="26.41" width="10.5" height="2.44"/><path d="M37.47,0A37.47,37.47,0,1,0,74.94,37.47,37.51,37.51,0,0,0,37.47,0Zm0,70.13A32.66,32.66,0,1,1,70.13,37.47,32.7,32.7,0,0,1,37.47,70.13Z"/></g></g></svg>