<svg xmlns="http://www.w3.org/2000/svg" viewBox="0 0 74.94 74.94"><g id="Layer_2" data-name="Layer 2"><g id="Objects"><path d="M50,27.14a2.25,2.25,0,1,1-2.25-2.25A2.25,2.25,0,0,1,50,27.14ZM47.16,37.2a9.43,9.43,0,1,1-9.43-9.43A9.44,9.44,0,0,1,47.16,37.2Zm-3.39,0a6,6,0,1,0-6,6A6,6,0,0,0,43.77,37.2Zm13-7.58a11.5,11.5,0,0,0-11.5-11.5H29.62a11.5,11.5,0,0,0-11.5,11.5v15.7a11.5,11.5,0,0,0,11.5,11.5h15.7a11.5,11.5,0,0,0,11.5-11.5ZM53,45.14a7.89,7.89,0,0,1-7.9,7.9H29.8a7.89,7.89,0,0,1-7.9-7.9V29.8a7.89,7.89,0,0,1,7.9-7.9H45.14A7.89,7.89,0,0,1,53,29.8Z"/><path d="M37.47,0A37.47,37.47,0,1,0,74.94,37.47,37.51,37.51,0,0,0,37.47,0Zm0,70.13A32.66,32.66,0,1,1,70.13,37.47,32.7,32.7,0,0,1,37.47,70.13Z"/></g></g></svg>