<svg xmlns="http://www.w3.org/2000/svg" xmlns:xlink="http://www.w3.org/1999/xlink" width="352.136" height="352.523" viewBox="0 0 352.136 352.523">
  <defs>
    <linearGradient id="linear-gradient" x1="1.084" y1="1.016" x2="0.336" y2="0.362" gradientUnits="objectBoundingBox">
      <stop offset="0" stop-color="#dae3fe"/>
      <stop offset="1" stop-color="#e9effd"/>
    </linearGradient>
    <linearGradient id="linear-gradient-2" y1="0.5" x2="1" y2="0.5" gradientUnits="objectBoundingBox">
      <stop offset="0" stop-color="#4f52ff"/>
      <stop offset="1" stop-color="#4042e2"/>
    </linearGradient>
    <linearGradient id="linear-gradient-3" x1="-0.515" y1="4.617" x2="0.484" y2="0.567" gradientUnits="objectBoundingBox">
      <stop offset="0" stop-color="#ff928e"/>
      <stop offset="1" stop-color="#fe7062"/>
    </linearGradient>
    <linearGradient id="linear-gradient-4" x1="1.039" y1="-0.145" x2="0.037" y2="1.054" xlink:href="#linear-gradient-2"/>
    <linearGradient id="linear-gradient-5" x1="0.009" y1="3.498" x2="-0.392" y2="4.404" gradientUnits="objectBoundingBox">
      <stop offset="0" stop-color="#febbba"/>
      <stop offset="1" stop-color="#ff928e"/>
    </linearGradient>
    <linearGradient id="linear-gradient-6" x1="1.97" y1="-1.152" x2="-1.355" y2="2.585" xlink:href="#linear-gradient-2"/>
    <linearGradient id="linear-gradient-7" x1="1.942" y1="0.5" x2="2.942" y2="0.5" xlink:href="#linear-gradient-5"/>
    <linearGradient id="linear-gradient-8" x1="6.423" y1="-5.594" x2="5.219" y2="0.571" xlink:href="#linear-gradient-2"/>
    <linearGradient id="linear-gradient-9" x1="4.836" y1="-14.746" x2="3.976" y2="-0.838" xlink:href="#linear-gradient-2"/>
    <linearGradient id="linear-gradient-10" x1="3.354" y1="0.5" x2="4.354" y2="0.5" xlink:href="#linear-gradient-5"/>
    <linearGradient id="linear-gradient-11" x1="1.713" y1="0.5" x2="2.713" y2="0.5" xlink:href="#linear-gradient-5"/>
    <linearGradient id="linear-gradient-12" x1="2.156" y1="-0.003" x2="4.175" y2="3.284" xlink:href="#linear-gradient-2"/>
    <linearGradient id="linear-gradient-13" x1="1.417" y1="-0.039" x2="3.154" y2="1.172" gradientUnits="objectBoundingBox">
      <stop offset="0" stop-color="#09005d"/>
      <stop offset="1" stop-color="#1a0f91"/>
    </linearGradient>
    <linearGradient id="linear-gradient-14" x1="5.481" y1="0.5" x2="6.481" y2="0.5" xlink:href="#linear-gradient-5"/>
    <linearGradient id="linear-gradient-15" x1="3.948" y1="0.531" x2="7.93" y2="0.806" xlink:href="#linear-gradient-5"/>
    <linearGradient id="linear-gradient-16" x1="2.33" y1="0.163" x2="1.608" y2="1.097" xlink:href="#linear-gradient-13"/>
    <linearGradient id="linear-gradient-17" x1="0" y1="0.5" x2="1" y2="0.5" xlink:href="#linear-gradient-13"/>
    <linearGradient id="linear-gradient-18" x1="0" y1="0.5" x2="1" y2="0.5" xlink:href="#linear-gradient-5"/>
    <linearGradient id="linear-gradient-23" x1="1.116" y1="-4.083" x2="0.704" y2="-1.145" xlink:href="#linear-gradient-2"/>
    <linearGradient id="linear-gradient-24" x1="0.158" y1="0.893" x2="2.215" y2="-0.713" xlink:href="#linear-gradient-5"/>
    <linearGradient id="linear-gradient-25" x1="0.964" y1="-0.514" x2="0.205" y2="0.924" xlink:href="#linear-gradient-2"/>
    <linearGradient id="linear-gradient-26" x1="4.382" y1="3.457" x2="5.97" y2="0.25" xlink:href="#linear-gradient-5"/>
    <linearGradient id="linear-gradient-27" x1="3.433" y1="7.84" x2="4.698" y2="1.792" xlink:href="#linear-gradient-5"/>
    <linearGradient id="linear-gradient-28" x1="7.291" y1="2.094" x2="4.168" y2="6.382" xlink:href="#linear-gradient-5"/>
    <linearGradient id="linear-gradient-29" x1="2.051" y1="17.831" x2="0.992" y2="19.114" xlink:href="#linear-gradient-5"/>
    <linearGradient id="linear-gradient-30" x1="1.072" y1="12.239" x2="1.963" y2="12.239" xlink:href="#linear-gradient-13"/>
    <linearGradient id="linear-gradient-31" x1="2.868" y1="-3.783" x2="-1.404" y2="4.001" xlink:href="#linear-gradient-5"/>
    <linearGradient id="linear-gradient-32" x1="-0.973" y1="6.474" x2="0.024" y2="2.43" xlink:href="#linear-gradient-3"/>
  </defs>
  <g id="Group_122" data-name="Group 122" transform="translate(-456.536 -455)">
    <path id="Path_186" data-name="Path 186" d="M793.912,693.158c-34.165,79.78-125.172,124.474-204.093,112.418-12.842-1.962-48.049-7.805-79.22-35.374-60.006-53.072-72.839-158.16-24.434-232.218,35.23-53.9,98.384-84.456,158.393-82.928,12.926.329,62.463,2.358,106,37.96a162.389,162.389,0,0,1,33.209,37.368C813.612,576.672,816.178,641.164,793.912,693.158Z" transform="translate(0 0)" fill="url(#linear-gradient)"/>
    <g id="Group_116" data-name="Group 116" transform="translate(648.317 469.216)">
      <path id="Path_187" data-name="Path 187" d="M2180.993,566.69c5.355,2.723,10.454,6.68,11.888,10.576,6.468,17.577-13.606,36.864-22.049,50.515-14.5,23.45-23.467,50.208-22.572,77.533.969,29.608-.63,58.31-10.35,86.781-5.007,14.667-12.846,29.785-25.6,39.945-24.1,19.193-70.867-2.056-75.113-29.17-3.386-21.624,4.1-43.167,13.776-62.456,16.28-32.449,37.974-62.141,54.468-94.477,12.613-24.727,20.215-77.1,55.044-82.726C2166.852,562.18,2175.313,563.8,2180.993,566.69Z" transform="translate(-2036.369 -562.898)" fill="#bdd0fb"/>
      <path id="Path_188" data-name="Path 188" d="M2270.175,966.013h.04a1.1,1.1,0,0,0,1.1-1.11,427.754,427.754,0,0,1,13.929-122.822,477.526,477.526,0,0,1,36.6-95.726c26.861-52.726,54.8-83.956,55.078-84.266a1.038,1.038,0,0,0-.124-1.516,1.175,1.175,0,0,0-1.6.117c-.281.311-28.409,31.754-55.4,84.728a479.643,479.643,0,0,0-36.764,96.144,429.836,429.836,0,0,0-13.994,123.41A1.107,1.107,0,0,0,2270.175,966.013Z" transform="translate(-2238.181 -647.479)" fill="#91b3fa"/>
    </g>
    <g id="Group_117" data-name="Group 117" transform="translate(471.658 503.957)">
      <path id="Path_189" data-name="Path 189" d="M724.245,980.46c-9.994-24.889-34.577-46.536-53.482-68.451-10-11.587-18.676-23.741-24.2-37.816-5.493-13.994-7.372-31.275-20.929-40.946-27.315-19.482-48.646,7.221-53.289,35.205-5.388,32.473,11.439,72,21.207,104.114,5.889,19.363,9.855,40.318,17.976,58.929,13.453,30.831,32.341,47.191,55.082,52.964,21.812,5.537,44.843-3.093,56.669-21.2C733.962,1046.9,740.367,1020.611,724.245,980.46Z" transform="translate(-571.306 -826.58)" fill="#91b3fa"/>
      <path id="Path_190" data-name="Path 190" d="M871.644,1321.261a2.054,2.054,0,0,1-1.65-.7c-.27-.316-27.361-32.147-56.379-80.476-26.8-44.63-60.786-112.888-70.542-184.628a1.914,1.914,0,0,1,1.733-2.114,1.971,1.971,0,0,1,2.243,1.634c18.514,136.156,124.992,261.958,126.066,263.212a1.816,1.816,0,0,1-.3,2.657A2.067,2.067,0,0,1,871.644,1321.261Z" transform="translate(-720.428 -1023.449)" fill="#7d97f4"/>
    </g>
    <rect id="Rectangle_43" data-name="Rectangle 43" width="79.658" height="79.658" rx="11.293" transform="translate(693.373 806.926) rotate(180)" fill="url(#linear-gradient-2)"/>
    <rect id="Rectangle_44" data-name="Rectangle 44" width="79.658" height="79.658" rx="10.356" transform="translate(661.839 732.461) rotate(180)" fill="url(#linear-gradient-3)"/>
    <rect id="Rectangle_45" data-name="Rectangle 45" width="79.658" height="79.658" rx="12.703" transform="translate(679.073 660.067) rotate(180)" fill="url(#linear-gradient-4)"/>
    <g id="Group_119" data-name="Group 119" transform="translate(643.673 455.924)">
      <path id="Path_191" data-name="Path 191" d="M2340.473,1025.278s1.138,49.534,53.221,58.221l9.35-9.23s-45.1-15.334-56.84-47.38l2.508-16.995-1.768-11.247Z" transform="translate(-2295.763 -932.046)" fill="url(#linear-gradient-5)"/>
      <rect id="Rectangle_46" data-name="Rectangle 46" width="79.658" height="79.658" rx="9.266" transform="translate(79.658 79.658) rotate(180)" fill="url(#linear-gradient-6)"/>
      <g id="Group_118" data-name="Group 118" transform="translate(9.415 44.253)">
        <path id="Path_192" data-name="Path 192" d="M2722.684,2421.011s24.71,53.856,37.675,76.164c0,0,2.575,14.036,0,18.45l-2.195.976,10.242-.305s.91-18.88.2-19.934a2.608,2.608,0,0,0-2.132-.985s-4.392-34.792-17.11-42.217l-12.325-42.452Z" transform="translate(-2637.032 -2214.599)" fill="url(#linear-gradient-7)"/>
        <path id="Path_193" data-name="Path 193" d="M2958.781,3076.545c-.015.247,8,.134,12.349.054a3.461,3.461,0,0,0,3.32-2.729l3.287-17.269a3.1,3.1,0,0,0-2.358-3.607l-1.834-.42s-2.617,3.591-1.793,6.971,1.557,12.136-.525,13.156-8.071,1.2-8.071,1.2S2958.918,3074.321,2958.781,3076.545Z" transform="translate(-2842.022 -2771.898)" fill="url(#linear-gradient-8)"/>
        <path id="Path_194" data-name="Path 194" d="M2541.9,3177.566a.9.9,0,0,0,.457,1.689c7.284-.073,23.605-.3,25.055-.906,1.873-.779-.682-7.507-3.371-9.784l-14.846,4.845Z" transform="translate(-2479.667 -2872.607)" fill="url(#linear-gradient-9)"/>
        <path id="Path_195" data-name="Path 195" d="M2509.941,2462.846s15.968,77.25,20.486,92.318l-10.686,6.706s5.355-.91,9.326-1.2,7.624-4.845,7.624-4.845l-1.281-2.042s-4-76.828-3.03-85.552Z" transform="translate(-2452.318 -2259.868)" fill="url(#linear-gradient-10)"/>
        <path id="Path_196" data-name="Path 196" d="M2090.57,945.042s-2.2,40.185,34.383,60.719l-8.808,20.089s-33.123-20.035-31.9-74.677a6.35,6.35,0,0,0-1.555-4.279l-7.04-8.167a12.637,12.637,0,0,1-2.687-11.318l.927-3.7a1.921,1.921,0,0,1,2.828-1.195l.736.428a12.925,12.925,0,0,1,5.307,5.9l3.457,7.727a7.428,7.428,0,0,0,7.419,4.367l2.137-.185Z" transform="translate(-2072.587 -922.249)" fill="url(#linear-gradient-11)"/>
        <path id="Path_197" data-name="Path 197" d="M2402.21,1532.783c6.121,1.7,26.857,7.152,39.8,6.929l-7.948,44.852.633,7.316-25.914-.116s-7.295-16.942-13.051-25.388c-1.662-2.44-.425-5.349.517-8.147l-1.294-.862a3.524,3.524,0,0,1-1.4-4.028l6.311-19.307A1.927,1.927,0,0,1,2402.21,1532.783Z" transform="translate(-2351.117 -1452.282)" fill="url(#linear-gradient-12)"/>
        <path id="Path_198" data-name="Path 198" d="M2482.106,1945.94l.51,4.432s-7.323,21.932,3.662,73.155c0,0,23.791,6.74,43.344-9.388,0,0-5.516-48.347-7.022-50.6-7.5-11.217-12.5-13.656-12.5-13.656l-.226-4.842S2488.957,1948.823,2482.106,1945.94Z" transform="translate(-2426.517 -1810.286)" fill="url(#linear-gradient-13)"/>
        <path id="Path_199" data-name="Path 199" d="M2571.49,1451.236c-.091-.12,5.41-16.608,5.41-16.608l7.879.715,3.078,18.7S2575.508,1456.54,2571.49,1451.236Z" transform="translate(-2505.756 -1367.121)" fill="url(#linear-gradient-14)"/>
        <path id="Path_200" data-name="Path 200" d="M2566.935,1231.97c-.525.327-16.838,7.069-13.333,24a3.179,3.179,0,0,0,1.808,2.265,27.641,27.641,0,0,0,13.711,2.27c8.545-.868,14.145-15.781,13.907-20.12S2572.142,1228.728,2566.935,1231.97Z" transform="translate(-2489.799 -1190.465)" fill="url(#linear-gradient-15)"/>
        <path id="Path_201" data-name="Path 201" d="M2588.268,1184.711c-.428.057-9.427,3.19-4.964,9.71s6.136,10.358,4.025,13.221c-1.923,2.609-6.182,1.122-5.811,6.549a3.044,3.044,0,0,1-1.3,2.751c-4.014,2.717-13.806,11.08-4.1,23.006a3.037,3.037,0,0,1,.343,3.4c-2.842,5.1-8.811,20.028,12.8,28.311,21.354,8.184,29.064-5.774,31.218-11.354a2.979,2.979,0,0,1,2.946-1.885c2.346.111,5.671-.279,5.519-3.415a7.836,7.836,0,0,0-2.686-4.98,2.975,2.975,0,0,1,.572-4.685,5.828,5.828,0,0,0,2.879-3.619c1.294-4.8-1.289-19.134-15.033-21.564a3.242,3.242,0,0,1-2.514-2.43c0-.017-.005-.034-.008-.051a2.972,2.972,0,0,1,1.1-2.922c2.194-1.61,5.009-4.851,2.723-10.049a11.263,11.263,0,0,0-8.8-6.66,2.994,2.994,0,0,1-2.454-3.578C2605.7,1189.882,2604.846,1182.537,2588.268,1184.711Z" transform="translate(-2506.167 -1149.79)" fill="url(#linear-gradient-16)"/>
      </g>
    </g>
    <g id="Group_121" data-name="Group 121" transform="translate(471.427 506.077)">
      <path id="Path_202" data-name="Path 202" d="M594.416,3134.313s-2.155,3.4-2.7,12.906a1.549,1.549,0,0,0,1.539,1.641h16.853a.994.994,0,0,0,.945-1.307c-.988-2.923-3.974-10.049-10.636-14.121Z" transform="translate(-588.797 -2848.002)" fill="url(#linear-gradient-17)"/>
      <path id="Path_203" data-name="Path 203" d="M606.646,3085.372l.953,7.993a1.5,1.5,0,0,0,1.313,1.321,13.3,13.3,0,0,0,3.564-.034,2.469,2.469,0,0,0,2.035-2.449v-7.717Z" transform="translate(-601.759 -2805.506)" fill="url(#linear-gradient-18)"/>
      <path id="Path_204" data-name="Path 204" d="M907.876,3133.432a23.534,23.534,0,0,0-3.156,11.9,2.977,2.977,0,0,0,2.994,2.912h26.175a1.253,1.253,0,0,0,.72-2.279c-4.953-3.478-14.688-9.976-21.729-12.529Z" transform="translate(-860.56 -2848.002)" fill="url(#linear-gradient-17)"/>
      <path id="Path_205" data-name="Path 205" d="M908.227,3042.651l2.033,9.871a2.035,2.035,0,0,0,2.408,1.6,7.362,7.362,0,0,0,2.3-.963,2.337,2.337,0,0,0,1.044-2.385l-2.1-11.959Z" transform="translate(-863.606 -2765.854)" fill="url(#linear-gradient-18)"/>
      <path id="Path_206" data-name="Path 206" d="M580.3,2002.578s-9.2,9.35-10.526,16.849,3.769,129.374,3.769,129.374,7.069,1.176,10.713-1.032c0,0,4.322-79.1,7.607-97.374,0,0,17.229,81.933,22,96.738,0,0,6.81.828,9.007-.467,0,0-4.1-108.183-9.772-127.065Z" transform="translate(-569.557 -1866.142)" fill="url(#linear-gradient-17)"/>
      <path id="Path_207" data-name="Path 207" d="M669.741,2232.545a.767.767,0,0,1-.742-.574l-2.927-11.229-6.235-4a.767.767,0,0,1,.829-1.292l6.487,4.162a.765.765,0,0,1,.328.452l3,11.519a.768.768,0,0,1-.743.961Z" transform="translate(-647.636 -2044.354)" fill="url(#linear-gradient-2)"/>
      <path id="Path_208" data-name="Path 208" d="M901.983,1421.413c-29.469-4.826-37.712.7-37.712.7l12.463,23.642s29.2,1.746,51.364-12.689a51.15,51.15,0,0,1-7.371-13.151A39.406,39.406,0,0,1,901.983,1421.413Z" transform="translate(-825.442 -1347.725)" fill="url(#linear-gradient-23)"/>
      <path id="Path_209" data-name="Path 209" d="M1323.957,1125.781a.912.912,0,0,0-1.7-.486l-4.429,7.776a8.44,8.44,0,0,0-1.071,4.953l.953,4.807a8.14,8.14,0,0,1-2.17,6.327c-3.824,4.071-11.865,11.423-22.759,14.965a51.145,51.145,0,0,0,7.371,13.151,51.324,51.324,0,0,0,19.776-23.308,3.982,3.982,0,0,0,3.115-3.723Z" transform="translate(-1197.492 -1087.657)" fill="url(#linear-gradient-24)"/>
      <path id="Path_210" data-name="Path 210" d="M701.428,1402.882c-12.752-8.636-33.344-9.106-45.072-8.542a10.6,10.6,0,0,0-10.025,9.218c-1.914,14.789-7.493,53.4-8.754,60.111-.674,3.584-4.954,12.013-2.651,15.191a8.14,8.14,0,0,0,3.475,2.37c3.758,1.663,7.608,3.107,11.455,4.55l8.634,3.238c3.83,1.436,10.379,4.161,13.851.92s3.5-8.836,4.779-13.08c1.157-3.831,2.467-7.623,3.7-11.43l9.467-29.245c.134-.413,2.339-6.236,2.078-6.418,20.492,14.308,35.156,12.656,45.211,6.16a84.7,84.7,0,0,1-7.6-16.3C713.13,1420.6,701.428,1402.882,701.428,1402.882Z" transform="translate(-625.728 -1326.927)" fill="url(#linear-gradient-25)"/>
      <path id="Path_211" data-name="Path 211" d="M1386.91,1496.028l-3.828-3.223c-7.964,8.695-15.523,12.068-22.259,12.457a84.693,84.693,0,0,0,7.6,16.3C1381.666,1513,1386.91,1496.028,1386.91,1496.028Z" transform="translate(-1256.572 -1412.013)" fill="url(#linear-gradient-26)"/>
      <path id="Path_212" data-name="Path 212" d="M1524.073,1420.959l16.627-3.171,13.211-11.985c-2.494-.861-14.163,4.78-14.163,4.78s-13.325,1.032-16.81,1.834c-2.9.666-1.518,4.732-.969,6.091.112.277.19.442.19.442Z" transform="translate(-1395.781 -1335.556)" fill="url(#linear-gradient-27)"/>
      <path id="Path_213" data-name="Path 213" d="M859.115,1214.911l-3.784,23.228s11.59,4.6,19.475,2.085l-.076-20.081Z" transform="translate(-817.68 -1168.627)" fill="url(#linear-gradient-28)"/>
      <g id="Group_120" data-name="Group 120" transform="translate(31.777 21.832)">
        <path id="Path_214" data-name="Path 214" d="M878.217,1074.4c.264.236,11.447,20.83,11.447,20.83l-11.894,6.135-13.5-17.944S873.791,1070.449,878.217,1074.4Z" transform="translate(-857.219 -1065.051)" fill="url(#linear-gradient-29)"/>
        <path id="Path_215" data-name="Path 215" d="M823.258,1028.68l6.366,10a1.635,1.635,0,0,0,.291.344c.693.621,3.236,2.581,5.083-.142,1.676-2.471,3.243-4.7,4.994-5.446a1.655,1.655,0,0,1,2.1.733,71.553,71.553,0,0,1,4.582,10.124,1.652,1.652,0,0,1-.907,2.038,53.362,53.362,0,0,1-11.838,3.8,1.657,1.657,0,0,1-1.577-.622c-1.813-2.352-7.349-9.481-9.2-11.229-1.737-1.641-4.881-.855-6.178-.432a1.626,1.626,0,0,1-1.279-.114c-1.393-.747-4.2-2.829-1.815-6.65a1.659,1.659,0,0,0-.576-2.317c-1.621-.944-3.56-2.835-1.978-6.1,1.607-3.321,4.687-3.565,6.665-3.321a1.657,1.657,0,0,0,1.777-1.167,1.31,1.31,0,0,1,1.174-.92,1.631,1.631,0,0,0,1.318-2.022,4.946,4.946,0,0,1,2.558-5.889c5.123-3,9.8,1.541,11.062,5.442s-4.477,6.833-8.121,7.393c-2.771.426-4.168,3.594-4.679,5.087A1.642,1.642,0,0,0,823.258,1028.68Z" transform="translate(-810.743 -1008.373)" fill="url(#linear-gradient-30)"/>
        <path id="Path_216" data-name="Path 216" d="M864.421,1220.737s-2.49-6.7-5.443-6.376-5.2,3.336-1.448,6.552C862.2,1224.915,864.421,1220.737,864.421,1220.737Z" transform="translate(-849.654 -1187.212)" fill="url(#linear-gradient-31)"/>
      </g>
      <rect id="Rectangle_47" data-name="Rectangle 47" width="79.658" height="79.658" rx="9.266" transform="translate(185.19 79.658) rotate(180)" fill="url(#linear-gradient-32)"/>
    </g>
    <path id="Path_217" data-name="Path 217" d="M2222.912,503.529a6.628,6.628,0,0,1,5.963-6.587,50.506,50.506,0,0,1,5.086-.276c5.114,0,7.768.619,10.325,2.477,2.75,1.947,4.969,6.282,4.969,12.653,0,5.043-1.544,9.821-5.5,12.387v.177c4.053,1.946,6.61,7.255,6.61,14.687,0,5.84-1.689,10.441-4.053,13.449-2.605,3.185-6.851,5.043-14.088,5.043-1.135,0-2.183-.035-3.143-.1a6.606,6.606,0,0,1-6.169-6.6Zm9.022,16.23h1.93c4.246,0,6.175-2.124,6.175-5.839,0-3.362-1.592-5.309-4.824-5.309a11.622,11.622,0,0,0-3.281.354Zm0,25.482a13.232,13.232,0,0,0,2.943.177c3.184,0,5.837-2.035,5.837-7.255,0-5.043-2.75-6.724-6.417-6.724h-2.364Z" transform="translate(-1544.819 -36.176)" fill="#fff"/>
    <path id="Path_218" data-name="Path 218" d="M1543.363,916.569a4.517,4.517,0,0,1,3.861-4.465,52.224,52.224,0,0,1,7.622-.534c5.452,0,9.07,1.415,11.579,4.689,2.075,2.743,3.377,7.078,3.377,13.095,0,7.963-3.522,13.006-5.79,14.333v.354c2.171,1.682,3.377,5.574,4.294,10.529.67,3.688,1.34,8.343,1.9,11.959a4.51,4.51,0,0,1-4.457,5.205h-.29a4.506,4.506,0,0,1-4.422-3.618c-.461-2.306-1.021-5.568-1.661-10.008-1.013-7.167-2.316-8.583-5.355-8.583h-1.64v17.7a4.511,4.511,0,0,1-4.511,4.511h0a4.511,4.511,0,0,1-4.511-4.511Zm9.022,21.191h2.7c3.57,0,5.693-2.655,5.693-7.167s-1.833-6.813-4.921-6.813a11,11,0,0,0-3.474.354Z" transform="translate(-950.495 -399.608)" fill="#fff"/>
    <path id="Path_219" data-name="Path 219" d="M1795.706,1580.807l-1.419,9.578a2.89,2.89,0,0,1-2.859,2.466h-3.673a2.89,2.89,0,0,1-2.847-3.384l9.349-53.855a2.89,2.89,0,0,1,2.847-2.4h7.606a2.89,2.89,0,0,1,2.843,2.372l9.822,53.855a2.89,2.89,0,0,1-2.843,3.408h-4.205a2.89,2.89,0,0,1-2.853-2.43l-1.554-9.65a2.89,2.89,0,0,0-2.853-2.43h-4.5A2.89,2.89,0,0,0,1795.706,1580.807Zm5.017-14.677a2.89,2.89,0,0,0,2.852-3.361l-1.183-7.168c-.455-2.641-.969-5.882-1.449-8.823a.363.363,0,0,0-.718.006c-.371,2.577-.961,6.659-1.307,8.9l-1.054,7.128a2.89,2.89,0,0,0,2.859,3.313Z" transform="translate(-1161.844 -943.684)" fill="#fff"/>
    <path id="Path_220" data-name="Path 220" d="M1653.785,2183.189l.068-53.855a2.89,2.89,0,0,1,2.89-2.886h6.419a2.89,2.89,0,0,1,2.76,2.033l4.724,15.22c1.724,5.515,3.415,12.07,4.879,18.6a.379.379,0,0,0,.749-.092c-.143-5.316-.369-14.615-.369-20.185v-12.682a2.89,2.89,0,0,1,2.89-2.89h2.66a2.89,2.89,0,0,1,2.89,2.894l-.068,53.855a2.89,2.89,0,0,1-2.89,2.886h-4.939a2.89,2.89,0,0,1-2.772-2.073l-5.2-17.657c-1.8-5.992-3.784-12.851-5.507-19.882a.379.379,0,0,0-.748.091c.028,5.555.079,16.811.079,23.419l-.062,13.227a2.89,2.89,0,0,1-2.89,2.876h-2.673A2.89,2.89,0,0,1,1653.785,2183.189Z" transform="translate(-1047.147 -1462.897)" fill="#fff"/>
    <path id="Path_221" data-name="Path 221" d="M1910.218,2723.419a2.9,2.9,0,0,1,2.36-2.842,49.523,49.523,0,0,1,9.074-.777c6.851,0,11.048,1.858,14.619,6.016,3.811,4.424,6.465,11.679,6.465,22.562,0,12.387-2.8,19.908-5.982,24.332-4,5.574-10.036,7.962-16.886,7.962a44,44,0,0,1-7.225-.515,2.9,2.9,0,0,1-2.424-2.853Zm9.119,44.249a8.055,8.055,0,0,0,2.123.177c6.658.178,11.531-5.574,11.531-18.581,0-11.856-4.583-16.811-10.469-16.811a9.419,9.419,0,0,0-3.184.442Z" transform="translate(-1271.485 -1982.791)" fill="#fff"/>
  </g>
</svg>
