<svg xmlns="http://www.w3.org/2000/svg" viewBox="0 0 74.94 74.94"><defs><style>.cls-1{fill-rule:evenodd;}</style></defs><g id="Layer_2" data-name="Layer 2"><g id="Objects"><path class="cls-1" d="M35.12,44.48c0,.12-.07.22-.1.33-1.54,6-1.71,7.38-3.3,10.19a31.62,31.62,0,0,1-2.55,3.81c-.11.14-.2.31-.42.27s-.25-.26-.27-.44a32.09,32.09,0,0,1-.34-5.54c.08-2.41.38-3.24,3.5-16.34a.94.94,0,0,0-.08-.55,9.25,9.25,0,0,1-.24-6.12c1.41-4.47,6.48-4.81,7.36-1.12.55,2.28-.89,5.26-2,9.67-.92,3.64,3.36,6.23,7,3.57,3.38-2.45,4.69-8.32,4.44-12.48-.49-8.3-9.59-10.09-15.36-7.42-6.61,3.06-8.12,11.26-5.13,15,.38.48.67.77.55,1.25-.2.75-.37,1.51-.57,2.26a.8.8,0,0,1-1.18.52,6.67,6.67,0,0,1-2.77-2.07c-2.54-3.14-3.26-9.35.09-14.61,3.72-5.83,10.63-8.19,16.94-7.47,7.54.86,12.31,6,13.2,11.85.4,2.66.11,9.22-3.62,13.86C46,48.24,39,48.6,35.81,45.32A10,10,0,0,1,35.12,44.48Z"/><path d="M37.47,0A37.47,37.47,0,1,0,74.94,37.47,37.51,37.51,0,0,0,37.47,0Zm0,70.13A32.66,32.66,0,1,1,70.13,37.47,32.7,32.7,0,0,1,37.47,70.13Z"/></g></g></svg>