<svg id="Group_115" data-name="Group 115" xmlns="http://www.w3.org/2000/svg" width="460.82" height="368.907" viewBox="0 0 460.82 368.907">
  <ellipse id="Ellipse_2" data-name="Ellipse 2" cx="54.274" cy="8.93" rx="54.274" ry="8.93" transform="translate(2.387 236.91)" fill="#dedede"/>
  <ellipse id="Ellipse_3" data-name="Ellipse 3" cx="54.274" cy="8.93" rx="54.274" ry="8.93" transform="translate(352.272 233.05)" fill="#dedede"/>
  <ellipse id="Ellipse_4" data-name="Ellipse 4" cx="45.379" cy="8.93" rx="45.379" ry="8.93" transform="translate(336.875 351.047)" fill="#dedede"/>
  <path id="Path_77" data-name="Path 77" d="M395.407,425.79c0,3.891-16.029,7.045-35.8,7.045s-35.8-3.155-35.8-7.045,16.029-7.046,35.8-7.046S395.407,421.9,395.407,425.79Z" transform="translate(-23.522 -87.678)" fill="#dedede"/>
  <ellipse id="Ellipse_5" data-name="Ellipse 5" cx="45.379" cy="8.93" rx="45.379" ry="8.93" transform="translate(30.259 313.413)" fill="#dedede"/>
  <ellipse id="Ellipse_6" data-name="Ellipse 6" cx="45.379" cy="8.93" rx="45.379" ry="8.93" transform="translate(221.123 342.821)" fill="#dedede"/>
  <ellipse id="Ellipse_7" data-name="Ellipse 7" cx="135.202" cy="16.726" rx="135.202" ry="16.726" transform="translate(104.951 301.118)" fill="#dedede"/>
  <g id="Group_44" data-name="Group 44" transform="translate(0 144.065)">
    <path id="Path_78" data-name="Path 78" d="M108.346,278.323a41.06,41.06,0,0,0-3.187-15.777l9.806-4.11a51.65,51.65,0,0,0-11.3-16.757l-7.492,7.544a41.243,41.243,0,0,0-13.388-8.887l4.042-9.839a51.525,51.525,0,0,0-19.687-3.873h-.127l.063,10.631a41.076,41.076,0,0,0-15.815,3.173l-4.1-9.81A51.663,51.663,0,0,0,30.392,241.9l7.536,7.5a41.273,41.273,0,0,0-8.9,13.379l-9.835-4.051A51.549,51.549,0,0,0,15.3,278.463l0,.253,9.754-.169h.874A41.075,41.075,0,0,0,29.09,294.3l-9.816,4.09a51.63,51.63,0,0,0,11.268,16.783l7.5-7.53a41.247,41.247,0,0,0,13.372,8.914l-4.062,9.83A51.525,51.525,0,0,0,67.14,330.3h.5l.5-.048-.966-10.574v-.008a41.063,41.063,0,0,0,15.758-3.142l4.083,9.82a51.653,51.653,0,0,0,16.79-11.248l-7.52-7.513a41.271,41.271,0,0,0,8.929-13.363l9.825,4.07a51.706,51.706,0,0,0,3.931-19.943ZM67.14,298.175a19.712,19.712,0,1,1,19.712-19.712A19.712,19.712,0,0,1,67.14,298.175Z" transform="translate(-15.301 -226.624)" fill="#133447"/>
    <path id="Path_79" data-name="Path 79" d="M67.431,237.544a41.209,41.209,0,1,0,41.209,41.21A41.21,41.21,0,0,0,67.431,237.544Zm0,60.922a19.712,19.712,0,1,1,19.712-19.712A19.712,19.712,0,0,1,67.431,298.466Z" transform="translate(-15.592 -226.915)" fill="#1e5370"/>
    <circle id="Ellipse_8" data-name="Ellipse 8" cx="12.086" cy="12.086" r="12.086" transform="translate(34.747 51.839) rotate(-45)" fill="#133447"/>
  </g>
  <g id="Group_45" data-name="Group 45" transform="translate(355.275 141.402)">
    <path id="Path_80" data-name="Path 80" d="M472.322,281.268a41.053,41.053,0,0,0-.75-16.078l10.316-2.572a51.646,51.646,0,0,0-8.621-18.281l-8.551,6.318a41.257,41.257,0,0,0-11.883-10.819l5.491-9.11a51.528,51.528,0,0,0-18.869-6.821l-.125-.018-1.553,10.517a41.09,41.09,0,0,0-16.114.731L419.1,224.817a51.683,51.683,0,0,0-18.288,8.6l6.308,8.557a41.264,41.264,0,0,0-10.829,11.871l-9.1-5.5a51.536,51.536,0,0,0-6.847,18.915l-.036.25,9.666,1.316.864.132a41.061,41.061,0,0,0,.725,16.053l-10.323,2.55a51.614,51.614,0,0,0,8.585,18.3l8.563-6.3a41.244,41.244,0,0,0,11.861,10.842l-5.509,9.1a51.542,51.542,0,0,0,18.96,6.874l.5.077.5.028.654-10.6v-.008a41.045,41.045,0,0,0,16.052-.711l2.542,10.327a51.651,51.651,0,0,0,18.3-8.566l-6.291-8.568a41.284,41.284,0,0,0,10.856-11.852l9.093,5.516a51.673,51.673,0,0,0,6.917-19.114ZM427.228,303.4a28.588,28.588,0,1,1,32.6-23.91A28.589,28.589,0,0,1,427.228,303.4Z" transform="translate(-380.302 -223.888)" fill="#003c5e"/>
    <path id="Path_81" data-name="Path 81" d="M438.113,234.688a41.209,41.209,0,1,0,34.466,46.994A41.208,41.208,0,0,0,438.113,234.688ZM427.5,303.674a28.588,28.588,0,1,1,32.6-23.91A28.59,28.59,0,0,1,427.5,303.674Z" transform="translate(-380.577 -224.163)" fill="#133447"/>
  </g>
  <g id="Group_56" data-name="Group 56" transform="translate(50.352)">
    <path id="Path_82" data-name="Path 82" d="M331.306,377.8H164.117L174.51,333.74h146.4Z" transform="translate(-69.619 -85.413)" fill="#003757"/>
    <path id="Path_83" data-name="Path 83" d="M338.878,405H155.24a15.656,15.656,0,0,1-15.61-15.61h0a15.656,15.656,0,0,1,15.61-15.61H338.878a15.656,15.656,0,0,1,15.61,15.61h0A15.656,15.656,0,0,1,338.878,405Z" transform="translate(-68.967 -86.48)" fill="#005c91"/>
    <path id="Path_84" data-name="Path 84" d="M338.878,392.257H155.24a15.648,15.648,0,0,1-14.167-9.112,15.451,15.451,0,0,0-1.442,6.5h0a15.656,15.656,0,0,0,15.61,15.61H338.878a15.656,15.656,0,0,0,15.61-15.61h0a15.451,15.451,0,0,0-1.443-6.5A15.648,15.648,0,0,1,338.878,392.257Z" transform="translate(-68.967 -86.73)" fill="#003757"/>
    <path id="Path_85" data-name="Path 85" d="M272.157,381.911H176.971a2.018,2.018,0,0,1-2.013-2.012h0a2.019,2.019,0,0,1,2.013-2.012h95.186a2.018,2.018,0,0,1,2.012,2.012h0A2.018,2.018,0,0,1,272.157,381.911Z" transform="translate(-69.908 -86.589)" fill="#5498bf"/>
    <path id="Path_86" data-name="Path 86" d="M321.979,381.911h-34.34a2.018,2.018,0,0,1-2.012-2.012h0a2.018,2.018,0,0,1,2.012-2.012h34.34a2.018,2.018,0,0,1,2.012,2.012h0A2.018,2.018,0,0,1,321.979,381.911Z" transform="translate(-72.857 -86.589)" fill="#5498bf"/>
    <rect id="Rectangle_17" data-name="Rectangle 17" width="356.184" height="218.61" rx="8.229" transform="translate(0 32.097)" fill="#005c91"/>
    <rect id="Rectangle_18" data-name="Rectangle 18" width="342.992" height="175.265" rx="6.967" transform="translate(6.596 46.231)" fill="#003c5e"/>
    <rect id="Rectangle_19" data-name="Rectangle 19" width="336.889" height="169.318" rx="6.787" transform="translate(9.648 49.205)" fill="#baf1ff"/>
    <path id="Path_87" data-name="Path 87" d="M98.8,298.458H392.678l8.652-169.2a6.312,6.312,0,0,0-1.211-.12H91.361a6.33,6.33,0,0,0-1.212.12Z" transform="translate(-67.648 -79.961)" fill="#99d0de"/>
    <circle id="Ellipse_9" data-name="Ellipse 9" cx="8.181" cy="8.181" r="8.181" transform="translate(167.183 232.182) rotate(-25.559)" fill="#e8fbff"/>
    <path id="Path_88" data-name="Path 88" d="M255.41,320.958a5.563,5.563,0,1,1-5.563-5.564A5.562,5.562,0,0,1,255.41,320.958Z" transform="translate(-71.755 -84.924)" fill="#003757"/>
    <rect id="Rectangle_20" data-name="Rectangle 20" width="293.822" height="218.523" transform="translate(31.181)" fill="#fff"/>
    <rect id="Rectangle_21" data-name="Rectangle 21" width="21.864" height="21.864" rx="5.204" transform="translate(182.349 131.316)" fill="#005c91"/>
    <rect id="Rectangle_22" data-name="Rectangle 22" width="21.864" height="21.864" rx="5.204" transform="translate(218.411 131.316)" fill="#baf1ff"/>
    <rect id="Rectangle_23" data-name="Rectangle 23" width="21.864" height="21.864" rx="5.204" transform="translate(290.534 131.316)" fill="#8bc9d9"/>
    <rect id="Rectangle_24" data-name="Rectangle 24" width="21.864" height="21.864" rx="5.204" transform="translate(254.472 131.316)" fill="#ff9cbd"/>
    <path id="Path_89" data-name="Path 89" d="M194.037,274.448H178.725l-5.869,27.883h27.883Z" transform="translate(-69.852 -83.833)" fill="#baf1ff"/>
    <rect id="Rectangle_25" data-name="Rectangle 25" width="32.735" height="84.634" transform="translate(44.103 133.864)" fill="#baf1ff"/>
    <path id="Path_90" data-name="Path 90" d="M174.726,301.848H141.991l11.186-45.525h15.14Z" transform="translate(-69.029 -83.35)" fill="#baf1ff"/>
    <rect id="Rectangle_26" data-name="Rectangle 26" width="130.231" height="60.328" transform="translate(43.757 60.434)" fill="#ff9cbd"/>
    <circle id="Ellipse_10" data-name="Ellipse 10" cx="18.664" cy="18.664" r="18.664" transform="translate(55.276 71.934)" fill="#fff"/>
    <path id="Path_91" data-name="Path 91" d="M141.276,180.354h0a2.378,2.378,0,0,1-3.352,0l-6.756-6.756a2.378,2.378,0,0,1,0-3.352h0a2.378,2.378,0,0,1,3.352,0L141.276,177A2.378,2.378,0,0,1,141.276,180.354Z" transform="translate(-68.723 -81.038)" fill="#005c91"/>
    <path id="Path_92" data-name="Path 92" d="M138.213,180.092h0a2.378,2.378,0,0,1,0-3.353l11.719-11.716a2.378,2.378,0,0,1,3.352,0h0a2.378,2.378,0,0,1,0,3.353l-11.719,11.716A2.378,2.378,0,0,1,138.213,180.092Z" transform="translate(-68.91 -80.899)" fill="#005c91"/>
    <rect id="Rectangle_27" data-name="Rectangle 27" width="130.231" height="60.328" transform="translate(182.36 60.434)" fill="#baf1ff"/>
    <rect id="Rectangle_28" data-name="Rectangle 28" width="285.891" height="13.788" transform="translate(35.147 4.276)" fill="#baf1ff"/>
    <rect id="Rectangle_29" data-name="Rectangle 29" width="161.346" height="5.772" transform="translate(97.419 8.284)" fill="#8bc9d9"/>
    <g id="Group_49" data-name="Group 49" transform="translate(283.059 6.87)">
      <g id="Group_46" data-name="Group 46" transform="translate(25.888 0.473)">
        <path id="Path_93" data-name="Path 93" d="M384.623,93.627h0a.639.639,0,0,1,0-.9l6.38-6.38a.639.639,0,0,1,.9,0h0a.639.639,0,0,1,0,.9l-6.38,6.38A.639.639,0,0,1,384.623,93.627Z" transform="translate(-384.437 -86.159)" fill="#fff"/>
        <path id="Path_94" data-name="Path 94" d="M391.9,93.627h0a.639.639,0,0,0,0-.9l-6.38-6.38a.639.639,0,0,0-.9,0h0a.639.639,0,0,0,0,.9l6.38,6.38A.639.639,0,0,0,391.9,93.627Z" transform="translate(-384.437 -86.159)" fill="#fff"/>
      </g>
      <g id="Group_47" data-name="Group 47" transform="translate(12.739)">
        <path id="Path_95" data-name="Path 95" d="M375.228,86.646a3.326,3.326,0,1,1-3.327,3.327,3.33,3.33,0,0,1,3.327-3.327m0-.973a4.3,4.3,0,1,0,4.3,4.3,4.3,4.3,0,0,0-4.3-4.3Z" transform="translate(-370.928 -85.673)" fill="#fff"/>
      </g>
      <g id="Group_48" data-name="Group 48" transform="translate(0 6.945)">
        <path id="Path_96" data-name="Path 96" d="M366.08,93.781h-7.754a.487.487,0,0,1,0-.973h7.754a.487.487,0,1,1,0,.973Z" transform="translate(-357.84 -92.808)" fill="#fff"/>
      </g>
    </g>
    <g id="Group_51" data-name="Group 51" transform="translate(39.74 13.538)">
      <g id="Group_50" data-name="Group 50">
        <path id="Path_97" data-name="Path 97" d="M116.1,93.5h-7.753a.487.487,0,0,1,0-.973H116.1a.487.487,0,1,1,0,.973Z" transform="translate(-107.86 -92.523)" fill="#fff"/>
      </g>
    </g>
    <g id="Group_53" data-name="Group 53" transform="translate(39.74 10.683)">
      <g id="Group_52" data-name="Group 52">
        <path id="Path_98" data-name="Path 98" d="M116.1,90.563h-7.753a.487.487,0,0,1,0-.973H116.1a.487.487,0,1,1,0,.973Z" transform="translate(-107.86 -89.59)" fill="#fff"/>
      </g>
    </g>
    <g id="Group_55" data-name="Group 55" transform="translate(39.74 7.829)">
      <g id="Group_54" data-name="Group 54">
        <path id="Path_99" data-name="Path 99" d="M116.1,87.631h-7.753a.487.487,0,0,1,0-.973H116.1a.487.487,0,1,1,0,.973Z" transform="translate(-107.86 -86.658)" fill="#fff"/>
      </g>
    </g>
    <path id="Path_100" data-name="Path 100" d="M227.627,175.3H173.016a2.6,2.6,0,0,1-2.59-2.591h0a2.6,2.6,0,0,1,2.59-2.591h54.611a2.6,2.6,0,0,1,2.591,2.591h0A2.6,2.6,0,0,1,227.627,175.3Z" transform="translate(-69.787 -81.053)" fill="#fff"/>
    <path id="Path_101" data-name="Path 101" d="M227.627,163.3H173.016a2.6,2.6,0,0,1-2.59-2.591h0a2.6,2.6,0,0,1,2.59-2.591h54.611a2.6,2.6,0,0,1,2.591,2.591h0A2.6,2.6,0,0,1,227.627,163.3Z" transform="translate(-69.787 -80.733)" fill="#fff"/>
    <path id="Path_102" data-name="Path 102" d="M227.627,187.305H173.016a2.6,2.6,0,0,1-2.59-2.591h0a2.6,2.6,0,0,1,2.59-2.591h54.611a2.6,2.6,0,0,1,2.591,2.591h0A2.6,2.6,0,0,1,227.627,187.305Z" transform="translate(-69.787 -81.373)" fill="#fff"/>
    <path id="Path_103" data-name="Path 103" d="M173.808,260.71H171v-.164a1.737,1.737,0,0,0-1.732-1.732H155.863a1.737,1.737,0,0,0-1.732,1.732v1.971a1.736,1.736,0,0,0,1.732,1.732h13.408A1.737,1.737,0,0,0,171,262.517v-.165h1.984v4.866h-10.42a.824.824,0,0,0-.821.821v6.228a2.568,2.568,0,0,0-1.747,2.42v3.937a23.7,23.7,0,0,1-2.184,1.323,4.694,4.694,0,0,0-2.475,2.6c-4.756,1.14-11.151,2.7-17.032,3.76-6.926,1.27-13.078,1.877-14.657,2.053q-.4.047-.763.107a4.534,4.534,0,0,0-1.09-.942s-5.291,1-9.3,1.636c-.332.053-1.653.376-3.56.675-.076-.658-.114-1.219-.128-1.69a6.349,6.349,0,0,0,3.627-2.983,17.273,17.273,0,0,0,.173-17.107l0,0s-2.627-11.091-15.264-7.705c-8.474,2.271-10.665,17.685-11.191,27.6-.282-.158-.572-.323-.873-.5A25.935,25.935,0,0,1,73.9,275.3a38.921,38.921,0,0,1-1.6-6.357c.675-.553,1.373-1.626,1.332-3.716-.081-3.983.552-5.047,1.065-5.75s-1.167-1.75-2.288.944l-1.12,2.693s-1.511-5.937-3.514-7.655a.919.919,0,0,0-.734-.283v13.133a5.429,5.429,0,0,0,.934.719,30.161,30.161,0,0,0,1.813,13.652,28.665,28.665,0,0,0,2.943,5.68,31.461,31.461,0,0,0,7.893,8.1,33.069,33.069,0,0,0,5.561,3.22c.374.165.732.3,1.081.424a19.055,19.055,0,0,0-.314,1.88,25.506,25.506,0,0,0,6.4,1.346s9.229,6.437,3.138,20.44c-1.516,3.487-2.794,6.937-3.9,10.256h28.958a63.329,63.329,0,0,0-3.538-10.256c-5.018-10.977,1.593-13.142,1.753-20.7a9.153,9.153,0,0,0,4.847-1.821s.146-.907.214-2.228a101.013,101.013,0,0,0,15.263-3.445,91.074,91.074,0,0,0,16.72-6.906,5.677,5.677,0,0,0,3.2.6v2.613a2.568,2.568,0,0,0,5.136,0V288.1c3.51-1.688,6.14-5.153,4.066-5.9a9.853,9.853,0,0,0-4.066-.118v-5.4a2.568,2.568,0,0,0-1.747-2.42V268.86h10.42a.824.824,0,0,0,.821-.822v-6.507A.824.824,0,0,0,173.808,260.71Z" transform="translate(-67.032 -83.319)" opacity="0.15" style="mix-blend-mode: multiply;isolation: isolate"/>
    <path id="Path_104" data-name="Path 104" d="M395.257,138.2c-2.371,1.142-5.241,6.512-5.241,6.512l-.476-2.911c-.477-2.913-2.377-2.338-2.034-1.52s.717,2.02-.288,5.867a4.426,4.426,0,0,0,.446,3.956,37.515,37.515,0,0,1-3.056,5.746,25.519,25.519,0,0,1-6.757,7.085,25.834,25.834,0,0,1-7.234,3.505c-.568-1.562-.985-2.508-.985-2.508a23.25,23.25,0,0,1-16.761,5.416,26.652,26.652,0,0,0,.331-5.859c.544-.225,1.087-.469,1.622-.754a16.484,16.484,0,0,0,1.65-1.02c3.149-.9,5.569-3.861,7.2-7.034,2.63-5.106,2.507-12.428-3.08-16.536-5.48-4.029-10.124-3.808-17.039-3.466a7.947,7.947,0,0,0,.444,7.2,16.913,16.913,0,0,0-5.823,17.055c.717,3.348,3.551,5.3,7.136,5.756a22.142,22.142,0,0,1-.288,3.25c-.213-.062-.371-.106-.452-.12-4.1-.715-13.012-5.889-13.012-5.889a10.774,10.774,0,0,0-3.023,2.857c-.206-.193-.419-.392-.646-.6a22.566,22.566,0,0,1-4.349-6.7c-.261-.721-.618-1.426-.839-2.193s-.42-1.559-.632-2.341a6.167,6.167,0,0,1-.25-1.2l-.189-1.216q-.1-.607-.2-1.21a6.514,6.514,0,0,1-.139-1.209c-.052-.81-.1-1.605-.151-2.38a16.729,16.729,0,0,1-.091-2.273c.009-.566.01-1.113.008-1.646.769-.425,1.638-1.367,1.914-3.451.526-3.989,1.332-4.929,1.961-5.533s-.921-1.97-2.472.5c-.522.831-.867,1.383-1.1,1.75l-.455.723s-.633-6.218-2.411-8.32-4.813,3.577-4.083,8.174c.457,2.883,1.208,4.611,2.139,5.566-.141.481-.283.974-.426,1.491a15.387,15.387,0,0,0-.494,2.463c-.124.87-.25,1.764-.38,2.674a7.966,7.966,0,0,0-.1,1.406q-.012.72-.022,1.447t-.01,1.47a8.286,8.286,0,0,0,.076,1.492c.124,1.007.248,2.017.371,3.018.154,1.005.474,2,.714,2.983a28.162,28.162,0,0,0,5.193,9.957,30.577,30.577,0,0,0,2.831,2.893c-.273.668-.428,1.09-.428,1.09h0a19.661,19.661,0,0,0,5.377,3.575c.751.349,1.5.653,2.214.915s1.407.484,2.044.67c.957.277,1.8.476,2.448.61.433.09.781.153,1.02.193s.37.057.37.057a96.264,96.264,0,0,1-.336,12.022q-.145,1.625-.329,3.18-.092.777-.192,1.534c-.4,3.029-.894,5.816-1.4,8.268q-.126.613-.253,1.2c-.168.779-.338,1.518-.5,2.216-.051.211-.1.412-.149.615l-.956-.014-.128-7.981a1.714,1.714,0,0,0-1.691-1.66,1.588,1.588,0,0,0-1.639,1.609l.357,21.712h0l1.378,83.765.195,11.84h0l.208,12.666H379.8l-.01-.855h0l-.388-35.312h0l-.13-11.833h0l-.13-11.864h0l-.131-11.9h0l-.131-11.929h0l-.131-11.962h0l-.265-24.019h0l-.105-9.557a1.69,1.69,0,0,0-1.665-1.652,1.586,1.586,0,0,0-1.629,1.6l.091,7.941L370,209.194c-.242-.534-.477-1.072-.7-1.614-.6-1.467-1.134-2.957-1.6-4.445s-.875-2.977-1.226-4.438a84.041,84.041,0,0,1-2.26-18.312q.416.018.836,0a14.709,14.709,0,0,0,2.488-.311,24.053,24.053,0,0,0,5.487-1.93c.306-.151.476-.245.476-.245-.136-1.106-.326-2.2-.542-3.259l.132-.047a30.643,30.643,0,0,0,9.644-5.791,27.565,27.565,0,0,0,4.211-4.733,29.2,29.2,0,0,0,4.955-12.752,5.363,5.363,0,0,0,3.816-4.293C396.475,142.95,397.626,137.063,395.257,138.2ZM360.283,253.09l-11.81.026c-.093-2.854-.208-5.876-.31-8.93l10.864-.027C359.458,247.22,359.873,250.25,360.283,253.09Zm-2.526-17.535c.276,1.741.543,3.527.8,5.324l-10.5.027c-.055-1.955-.1-3.9-.125-5.792q-.025-1.571-.031-3.084l9.3-.026Q357.486,233.738,357.757,235.555Zm-9.662-13.526c.036-.747.078-1.435.122-2.084l.726,0a12.141,12.141,0,0,0,2.11.194,21.383,21.383,0,0,0,2.988-.21l.965,0q.28,1.365.605,3.063c.322,1.713.68,3.657,1.044,5.756l-8.742.025C347.937,226.288,348,224,348.095,222.03Zm-15.761-13.841,0-.2h.056C332.368,208.057,332.351,208.123,332.334,208.189Zm.186,8.567-.109-5.027q2.266.783,4.5,1.337c-.013.1-.031.2-.043.3-.016.129-.031.285-.047.453-.009.088-.017.181-.025.279,0,.057-.01.118-.015.179-.054.65-.1,1.478-.139,2.467Zm.263,12.058L332.59,220l4.005-.013c0,.536.009,1.088.023,1.665.051,2.146.184,4.572.4,7.153Zm.071,3.26,4.47-.013q.185,1.768.419,3.593c.218,1.74.472,3.508.749,5.278l-5.446.014Zm.264,12.15,5.92-.015c.537,3.066,1.141,6.085,1.782,8.925l-7.509.017Zm.266,12.226,8.216-.017c.414,1.665.836,3.235,1.258,4.684a5.982,5.982,0,0,0-1.4,2.242,3.906,3.906,0,0,0-.225,2.058l-7.653.015Zm42.65,62.248.3,9.272-41.391,0-.2-9.26Zm-.108-3.407-41.262.018-.2-9.2,41.169-.029Zm-.693-21.758.291,9.158-41.134.033-.2-9.148Zm-.107-3.364-41.008.048-.2-9.091,40.916-.058Zm-.79-24.815-4.078.007c-.011-.088-.007-.174-.026-.264a4.665,4.665,0,0,0-.487-1.3,6.43,6.43,0,0,0-2.774-2.64c.2-1.453.373-3.064.522-4.785l6.557-.014Zm-.391-12.294-6.206.014c.179-2.828.293-5.854.332-8.936l5.589-.014Zm-.389-12.219-5.474.014c-.011-2.022-.053-4.042-.133-6.02-.03-.967-.072-1.918-.12-2.86l5.444-.016Zm-.386-12.146-5.54.017c-.188-2.634-.424-5.09-.662-7.226-.062-.558-.127-1.086-.192-1.6l6.113-.019Zm-1.924-17.443a36.137,36.137,0,0,1-2.169-3.391l3.428-.013.28,8.776-6.467.021c-.059-.374-.115-.712-.168-1.03h0l-.016-.09c-.048-.283-.093-.54-.136-.774-.017-.092-.033-.182-.049-.268s-.028-.152-.042-.222c-.03-.156-.058-.3-.083-.419-.063-.312-.132-.612-.2-.9A45.138,45.138,0,0,0,371.243,211.252Zm-8.879,57.473,4.949-.009c.08,0,.153-.02.231-.026l6.9-.013.288,9.046-40.882.061-.2-9.035,28.4-.051A3.062,3.062,0,0,0,362.364,268.725Zm-1.59-12.333c.273,1.772.546,3.432.822,4.925a5.448,5.448,0,0,0-2.01,2.505,3.925,3.925,0,0,0-.351,1.56l-7.086.013a2.963,2.963,0,0,0-.03-1.44,4.651,4.651,0,0,0-.557-1.263,6.345,6.345,0,0,0-2.917-2.465c-.013-1.2-.039-2.477-.074-3.81Z" transform="translate(-73.621 -79.905)" opacity="0.15" style="mix-blend-mode: multiply;isolation: isolate"/>
    <path id="Path_105" data-name="Path 105" d="M309.69,254.768l-11.561-4.05a5.92,5.92,0,0,0-7.186,3.394l-5.084,11.913a5.041,5.041,0,0,0,2.8,6.891l11.561,4.05c.056.019.115.032.172.05.2.5.4,1.069.618,1.726a5.062,5.062,0,0,0,2,2.909c-.481,2.263-.928,4.9-1.573,7.659-.2.918-.373,1.857-.588,2.8l-.71,2.815c-.415,1.9-1.034,3.726-1.552,5.516a63.076,63.076,0,0,1-2.88,7.352,33.294,33.294,0,0,0-1.831-3.017c-5.995,6.055-10.506,9.032-13.817,10.44a32.843,32.843,0,0,0,.349-3.6,17.978,17.978,0,0,0,4.871-3.319,20.7,20.7,0,0,0,5.376-8.621,1.434,1.434,0,0,0,.721.177c2.744-.046,6.327-7.228,3.379-8.425a2.85,2.85,0,0,0-1.84-.136c0-.439,0-.878-.035-1.317-.671-8.487-5.258-12.236-14.92-10.8A15.1,15.1,0,0,0,265.818,289.3c-.048.172-.073.341-.116.511a2.839,2.839,0,0,0-1.879-.136c-3.255.765-1.969,8.287.7,8.71a1.575,1.575,0,0,0,1.193-.292,21.238,21.238,0,0,0,1.855,9.652,8.2,8.2,0,0,0,3.976,4.188,23.161,23.161,0,0,1-.427,3.663c-4.481-1.652-10.565-7.358-10.565-7.358l-.049.031c-.137-.224-.275-.462-.435-.713a12.212,12.212,0,0,1-.745-1.3,31.453,31.453,0,0,1-2.818-7.524c-.162-.758-.423-1.5-.526-2.3-.135-.8-.271-1.6-.406-2.4-.155-.8-.172-1.636-.273-2.447-.063-.819-.214-1.62-.222-2.43q-.053-1.215-.1-2.379c-.039-.776-.105-1.531-.079-2.265q0-1.264-.03-2.4a3.313,3.313,0,0,0,.421-.084c.977-.267,2.27-1.068,3.368-3.271.462-.926.879-1.68,1.26-2.309l1.522.533a5.918,5.918,0,0,0,7.185-3.394l5.085-11.913a5.041,5.041,0,0,0-2.8-6.891l-11.562-4.05a5.918,5.918,0,0,0-7.185,3.394l-5.085,11.913a5.042,5.042,0,0,0,2.8,6.891l.917.321c-.043.172-.093.346-.127.518-.61,3.153-.5,5.177.085,6.44-.421,1.19-.856,2.571-1.294,4.095a22.265,22.265,0,0,0-.566,2.462q-.241,1.294-.492,2.648c-.181.905-.21,1.841-.314,2.786-.067.946-.207,1.908-.2,2.872s.006,1.94.009,2.9c-.018.97.141,1.923.211,2.873a34.78,34.78,0,0,0,2.447,10.021,17.485,17.485,0,0,0,.844,1.861c.29.561.519,1.089.8,1.525.542.88.934,1.549,1.217,1.912.01.014.019.024.029.037-1,1.724-1.571,3.012-1.571,3.012,3.561,8.234,9.126,10.271,9.126,10.271q-.152,2.246-.3,4.428h29.154c.407-5.19.96-8.592.96-8.592,4.954.138,8.837-4.509,8.837-4.509-.011-.483-.044-.964-.09-1.443l0,0a25.136,25.136,0,0,0,1.667-2.33c.384-.535.667-1.151,1.051-1.821a20.447,20.447,0,0,0,1.093-2.186,49.526,49.526,0,0,0,3.455-11.193,77.06,77.06,0,0,0,.956-20.641c1.323-1.068,2.16-3.264,2.076-7.429a11.357,11.357,0,0,0-.854-3.945l3.479-8.151A5.041,5.041,0,0,0,309.69,254.768Z" transform="translate(-71.818 -83.193)" opacity="0.15" style="mix-blend-mode: multiply;isolation: isolate"/>
  </g>
  <g id="Group_79" data-name="Group 79" transform="translate(311.899 117.02)">
    <g id="Group_58" data-name="Group 58">
      <g id="Group_57" data-name="Group 57">
        <path id="Path_106" data-name="Path 106" d="M337.373,420.5a1.634,1.634,0,0,1-1.634-1.633v-218.4a1.634,1.634,0,1,1,3.268,0v218.4A1.634,1.634,0,0,1,337.373,420.5Z" transform="translate(-335.739 -198.838)" fill="#0e2533"/>
      </g>
    </g>
    <g id="Group_60" data-name="Group 60" transform="translate(44.681)">
      <g id="Group_59" data-name="Group 59">
        <path id="Path_107" data-name="Path 107" d="M383.276,420.5a1.634,1.634,0,0,1-1.633-1.633v-218.4a1.634,1.634,0,1,1,3.268,0v218.4A1.634,1.634,0,0,1,383.276,420.5Z" transform="translate(-381.643 -198.838)" fill="#0e2533"/>
      </g>
    </g>
    <g id="Group_78" data-name="Group 78" transform="translate(0 9.623)">
      <g id="Group_61" data-name="Group 61">
        <path id="Path_108" data-name="Path 108" d="M382.053,211.992h-44.68a1.634,1.634,0,1,1,0-3.268h44.68a1.634,1.634,0,1,1,0,3.268Z" transform="translate(-335.739 -208.724)" fill="#0e2533"/>
      </g>
      <g id="Group_62" data-name="Group 62" transform="translate(0 12.136)">
        <path id="Path_109" data-name="Path 109" d="M382.053,224.46h-44.68a1.634,1.634,0,1,1,0-3.268h44.68a1.634,1.634,0,1,1,0,3.268Z" transform="translate(-335.739 -221.192)" fill="#0e2533"/>
      </g>
      <g id="Group_63" data-name="Group 63" transform="translate(0 24.272)">
        <path id="Path_110" data-name="Path 110" d="M382.053,236.928h-44.68a1.634,1.634,0,1,1,0-3.268h44.68a1.634,1.634,0,1,1,0,3.268Z" transform="translate(-335.739 -233.66)" fill="#0e2533"/>
      </g>
      <g id="Group_64" data-name="Group 64" transform="translate(0 36.406)">
        <path id="Path_111" data-name="Path 111" d="M382.053,249.4h-44.68a1.634,1.634,0,1,1,0-3.268h44.68a1.634,1.634,0,1,1,0,3.268Z" transform="translate(-335.739 -246.127)" fill="#0e2533"/>
      </g>
      <g id="Group_65" data-name="Group 65" transform="translate(0 48.543)">
        <path id="Path_112" data-name="Path 112" d="M382.053,261.863h-44.68a1.634,1.634,0,1,1,0-3.268h44.68a1.634,1.634,0,1,1,0,3.268Z" transform="translate(-335.739 -258.596)" fill="#0e2533"/>
      </g>
      <g id="Group_66" data-name="Group 66" transform="translate(0 60.679)">
        <path id="Path_113" data-name="Path 113" d="M382.053,274.332h-44.68a1.634,1.634,0,1,1,0-3.268h44.68a1.634,1.634,0,1,1,0,3.268Z" transform="translate(-335.739 -271.064)" fill="#0e2533"/>
      </g>
      <g id="Group_67" data-name="Group 67" transform="translate(0 72.814)">
        <path id="Path_114" data-name="Path 114" d="M382.053,286.8h-44.68a1.634,1.634,0,0,1,0-3.269h44.68a1.634,1.634,0,0,1,0,3.269Z" transform="translate(-335.739 -283.531)" fill="#0e2533"/>
      </g>
      <g id="Group_68" data-name="Group 68" transform="translate(0 84.949)">
        <path id="Path_115" data-name="Path 115" d="M382.053,299.267h-44.68a1.634,1.634,0,1,1,0-3.268h44.68a1.634,1.634,0,1,1,0,3.268Z" transform="translate(-335.739 -295.999)" fill="#0e2533"/>
      </g>
      <g id="Group_69" data-name="Group 69" transform="translate(0 97.085)">
        <path id="Path_116" data-name="Path 116" d="M382.053,311.735h-44.68a1.634,1.634,0,1,1,0-3.268h44.68a1.634,1.634,0,1,1,0,3.268Z" transform="translate(-335.739 -308.467)" fill="#0e2533"/>
      </g>
      <g id="Group_70" data-name="Group 70" transform="translate(0 109.221)">
        <path id="Path_117" data-name="Path 117" d="M382.053,324.2h-44.68a1.634,1.634,0,1,1,0-3.268h44.68a1.634,1.634,0,1,1,0,3.268Z" transform="translate(-335.739 -320.935)" fill="#0e2533"/>
      </g>
      <g id="Group_71" data-name="Group 71" transform="translate(0 121.357)">
        <path id="Path_118" data-name="Path 118" d="M382.053,336.671h-44.68a1.634,1.634,0,1,1,0-3.268h44.68a1.634,1.634,0,1,1,0,3.268Z" transform="translate(-335.739 -333.403)" fill="#0e2533"/>
      </g>
      <g id="Group_72" data-name="Group 72" transform="translate(0 133.492)">
        <path id="Path_119" data-name="Path 119" d="M382.053,349.139h-44.68a1.634,1.634,0,1,1,0-3.268h44.68a1.634,1.634,0,1,1,0,3.268Z" transform="translate(-335.739 -345.871)" fill="#0e2533"/>
      </g>
      <g id="Group_73" data-name="Group 73" transform="translate(0 145.628)">
        <path id="Path_120" data-name="Path 120" d="M382.053,361.607h-44.68a1.634,1.634,0,1,1,0-3.268h44.68a1.634,1.634,0,1,1,0,3.268Z" transform="translate(-335.739 -358.339)" fill="#0e2533"/>
      </g>
      <g id="Group_74" data-name="Group 74" transform="translate(0 157.764)">
        <path id="Path_121" data-name="Path 121" d="M382.053,374.075h-44.68a1.634,1.634,0,1,1,0-3.268h44.68a1.634,1.634,0,1,1,0,3.268Z" transform="translate(-335.739 -370.807)" fill="#0e2533"/>
      </g>
      <g id="Group_75" data-name="Group 75" transform="translate(0 169.899)">
        <path id="Path_122" data-name="Path 122" d="M382.053,386.542h-44.68a1.634,1.634,0,1,1,0-3.269h44.68a1.634,1.634,0,1,1,0,3.269Z" transform="translate(-335.739 -383.274)" fill="#0e2533"/>
      </g>
      <g id="Group_76" data-name="Group 76" transform="translate(0 182.035)">
        <path id="Path_123" data-name="Path 123" d="M382.053,399.012h-44.68a1.634,1.634,0,1,1,0-3.268h44.68a1.634,1.634,0,1,1,0,3.268Z" transform="translate(-335.739 -395.743)" fill="#0e2533"/>
      </g>
      <g id="Group_77" data-name="Group 77" transform="translate(0 194.171)">
        <path id="Path_124" data-name="Path 124" d="M382.053,411.479h-44.68a1.634,1.634,0,1,1,0-3.268h44.68a1.634,1.634,0,1,1,0,3.268Z" transform="translate(-335.739 -408.211)" fill="#0e2533"/>
      </g>
    </g>
  </g>
  <g id="Group_95" data-name="Group 95" transform="translate(94.109 27.734)">
    <path id="Path_125" data-name="Path 125" d="M327.964,140.433c.76-.431,1.635-1.379,1.94-3.458.578-3.941,1.378-4.886,2-5.495s-.862-1.918-2.413.553l-1.1,1.748Z" transform="translate(-117.742 -107.733)" fill="#ffbe8f"/>
    <rect id="Rectangle_30" data-name="Rectangle 30" width="268.671" height="25.666" transform="translate(0 0)" fill="#8bc9d9"/>
    <text id="SEARCH" transform="translate(247.511 9.153)" fill="#005c91" font-size="7" font-family="SegoeUI, Segoe UI"><tspan x="-25.167" y="0">SEARCH</tspan></text>
    <rect id="Rectangle_31" data-name="Rectangle 31" width="252.272" height="1.218" transform="translate(8.199 16.915)" fill="#005c91"/>
    <path id="Path_126" data-name="Path 126" d="M328.219,133.655l-.453.723s-.51-6.1-2.2-8.13-4.734,3.63-4.107,8.134c.783,5.624,2.772,6.732,5.062,6.284a2.577,2.577,0,0,0,1.268-.359Z" transform="translate(-117.567 -107.607)" fill="#ffbe8f"/>
    <g id="Group_84" data-name="Group 84" transform="translate(213.039 3.906)">
      <g id="Group_83" data-name="Group 83">
        <g id="Group_80" data-name="Group 80" transform="translate(6.853 6.852)">
          <path id="Path_127" data-name="Path 127" d="M341.566,122.314a.489.489,0,0,1-.344-.142l-3.18-3.18a.487.487,0,1,1,.688-.688l3.18,3.18a.486.486,0,0,1-.344.83Z" transform="translate(-337.899 -118.161)" fill="#005c91"/>
        </g>
        <g id="Group_81" data-name="Group 81">
          <path id="Path_128" data-name="Path 128" d="M335.157,112.094a3.326,3.326,0,1,1-2.352.974,3.307,3.307,0,0,1,2.352-.974m0-.973a4.3,4.3,0,1,0,3.041,1.259,4.286,4.286,0,0,0-3.041-1.259Z" transform="translate(-330.858 -111.121)" fill="#005c91"/>
        </g>
        <g id="Group_82" data-name="Group 82" transform="translate(6.366 6.366)">
          <path id="Path_129" data-name="Path 129" d="M339.107,120.344a.972.972,0,0,1-.688-.285l-.736-.736a.973.973,0,1,1,1.376-1.376l.736.736a.973.973,0,0,1-.688,1.662Z" transform="translate(-337.398 -117.661)" fill="#005c91"/>
        </g>
      </g>
    </g>
    <g id="Group_94" data-name="Group 94" transform="translate(204.276 24.839)">
      <g id="Group_86" data-name="Group 86" transform="translate(22.025)">
        <path id="Path_130" data-name="Path 130" d="M352.595,138.735c-4,2.755-9.615,8.9-7.74,18.413,1.182,6,9.232,7.349,16.27,3.446a16.038,16.038,0,0,0,8.214-16.4C368.455,139.1,359.005,134.319,352.595,138.735Z" transform="translate(-344.483 -132.743)" fill="#ffbe8f"/>
        <g id="Group_85" data-name="Group 85" transform="translate(6.494 25.29)">
          <path id="Path_131" data-name="Path 131" d="M355.052,173.142a3.849,3.849,0,0,1-.843-.093,3.894,3.894,0,0,1-2.963-4.641c1.1-4.967.572-6.932.567-6.952a1.127,1.127,0,0,0,.1.251l7.143-3.1c.363.835,1.419,4.134-.2,11.478A3.9,3.9,0,0,1,355.052,173.142Z" transform="translate(-351.154 -158.609)" fill="#ffbe8f"/>
        </g>
        <path id="Path_132" data-name="Path 132" d="M352.61,142.421s-2.81,4.379-3.84,5.948c0,0,1.885,1.43,3.167-.231s2.2-4.79,4.813-4.747c1.738.029,1.49,1.856.732,3.33-1.161,2.255-3.019,3.4-4.208,3.266,0,0-3.121,4.974,3.182,8.518s10.942-1.087,13.594-6.215,2.619-12.39-2.82-16.334c-5.322-3.859-9.874-3.532-16.642-3.036C350.588,132.92,348.106,137.484,352.61,142.421Z" transform="translate(-344.597 -132.627)" fill="#003c5e"/>
      </g>
      <g id="Group_87" data-name="Group 87" transform="translate(43.351 12.419)">
        <path id="Path_133" data-name="Path 133" d="M395.179,145.386a47.794,47.794,0,0,1-4.022,7.972,25.946,25.946,0,0,1-14.446,11.008,36.865,36.865,0,0,1-4.84,1.12c-3.786.628-5.3,1.768-5.468,4.8a3.32,3.32,0,0,0,1.578,3.309c1.153.675,2.97.919,5.415.487a33.018,33.018,0,0,0,6.17-1.795,31.435,31.435,0,0,0,9.6-5.97,28.714,28.714,0,0,0,4.218-4.809,30.236,30.236,0,0,0,5.3-15.359Z" transform="translate(-366.393 -145.386)" fill="#ffbe8f"/>
      </g>
      <g id="Group_88" data-name="Group 88" transform="translate(0 4.754)">
        <path id="Path_134" data-name="Path 134" d="M324.3,137.511c-.417,1.176-.852,2.56-1.293,4.094a15.582,15.582,0,0,0-.524,2.439c-.135.861-.275,1.746-.416,2.647a7.973,7.973,0,0,0-.124,1.389q-.023.71-.047,1.429t-.036,1.452a8.406,8.406,0,0,0,.048,1.473c.1.993.206,1.988.309,2.976.132.991.427,1.965.644,2.937a26.8,26.8,0,0,0,4.891,9.765,27.465,27.465,0,0,0,2.781,2.877c.41.359.761.685,1.077.931l.782.565c2.017,1.443,3.81,1.906,5.128,1.693a3.2,3.2,0,0,0,2.595-2.55,5.009,5.009,0,0,0,0-3.541,7.512,7.512,0,0,0-2.683-2.733l-.54-.365c-.221-.157-.461-.372-.753-.6a23.321,23.321,0,0,1-2.03-1.809,21.291,21.291,0,0,1-4.136-6.551c-.242-.709-.578-1.4-.781-2.154l-.577-2.3a6.065,6.065,0,0,1-.223-1.181l-.164-1.2q-.088-.6-.173-1.191a6.528,6.528,0,0,1-.115-1.19c-.037-.8-.073-1.583-.107-2.347a16.56,16.56,0,0,1-.051-2.241c.046-1.448.056-2.8.026-3.983Z" transform="translate(-321.855 -137.511)" fill="#ffbe8f"/>
      </g>
      <path id="Path_135" data-name="Path 135" d="M345.513,215.616s3.864,8.747,12.735,8.747,14.146-4.463,12.705-13.825C370.954,210.538,352.644,207.415,345.513,215.616Z" transform="translate(-322.486 -134.687)" fill="#005c91"/>
      <g id="Group_90" data-name="Group 90" transform="translate(38.776 76.095)">
        <g id="Group_89" data-name="Group 89">
          <path id="Path_136" data-name="Path 136" d="M373.511,266.695a154.066,154.066,0,0,0,2.06-27.516c0-4.949-.279-9.641-.588-13.387s-.732-6.552-.937-7.706c-1.052-5.964-3.848-8.254-7.825-6.908-4,1.346-5.172,3.666-4.211,9.052.183,1.039.7,3.561,1.273,7.036s1.26,7.875,1.842,12.6c1.263,9.44,2.2,20.129,3.37,26.762Z" transform="translate(-361.692 -210.805)" fill="#005c91"/>
        </g>
      </g>
      <g id="Group_93" data-name="Group 93" transform="translate(20.888 74.312)">
        <g id="Group_91" data-name="Group 91">
          <path id="Path_137" data-name="Path 137" d="M354.583,267.41c.29-7-.116-18.174.013-28.056.047-4.94.231-9.544.5-13.123s.636-6.111.779-7.113c.364-2.621.344-4.238-.284-5.291a7.237,7.237,0,0,0-1.346-1.5,9.358,9.358,0,0,1-.83-.965,12.388,12.388,0,0,0-1-1.078,6.349,6.349,0,0,0-1.168-.91,2.5,2.5,0,0,0-1.309-.407,4.387,4.387,0,0,0-2.845,1.15c-1.74,1.479-2.874,4.013-3.334,7.332a64.9,64.9,0,0,0-.451,8.357,135.408,135.408,0,0,0,.824,14.054,157.943,157.943,0,0,0,5.471,28.216Z" transform="translate(-343.315 -208.973)" fill="#005c91"/>
        </g>
        <g id="Group_92" data-name="Group 92" transform="translate(17.888 1.783)">
          <path id="Path_138" data-name="Path 138" d="M373.511,266.695a154.066,154.066,0,0,0,2.06-27.516c0-4.949-.279-9.641-.588-13.387s-.732-6.552-.937-7.706c-1.052-5.964-3.848-8.254-7.825-6.908-4,1.346-5.172,3.666-4.211,9.052.183,1.039.7,3.561,1.273,7.036s1.26,7.875,1.842,12.6c1.263,9.44,2.2,20.129,3.37,26.762Z" transform="translate(-361.692 -210.805)" fill="#005c91"/>
        </g>
        <path id="Path_139" data-name="Path 139" d="M373.842,219.827c-.11-.773-.207-1.387-.279-1.789a11.171,11.171,0,0,0-2.472-5.856q-.057-.809-.189-1.67s-9.674-1.647-17.7.6c-.235-.272-.486-.548-.776-.824a6.348,6.348,0,0,0-1.168-.91,2.5,2.5,0,0,0-1.309-.407,4.387,4.387,0,0,0-2.845,1.15c-1.74,1.479-2.874,4.013-3.334,7.332-.062.432-.133,1.078-.2,1.876A63.879,63.879,0,0,0,373.842,219.827Z" transform="translate(-343.322 -208.973)" fill="#004973"/>
      </g>
      <path id="Path_140" data-name="Path 140" d="M350.612,166.485c1.052.165,14.047,4.97,24.7-4.357A55.863,55.863,0,0,1,378.969,176s-4.824,2.762-9.205,2.649c0,0-.485,21.925,9.1,35.507,0,0-19.974,7.724-41.014,0a113.7,113.7,0,0,0,5.5-35.769s-8.212-.952-13.093-5.744c0,0,3.4-9.206,7.7-11.751C337.958,160.892,346.6,165.853,350.612,166.485Z" transform="translate(-322.079 -133.38)" fill="#ff595f"/>
      <path id="Path_141" data-name="Path 141" d="M370.789,179.062c4.381.113,9.205-2.649,9.205-2.649s-5.842,2.267-11.2.7c0,0-1.216,26.2,11.1,37.46C370.3,200.987,370.789,179.062,370.789,179.062Z" transform="translate(-323.105 -133.794)" fill="#cc3f44"/>
      <path id="Path_142" data-name="Path 142" d="M346.7,177.646c-11.787-.943-16.439-4.681-16.439-4.681,4.88,4.792,13.093,5.744,13.093,5.744a113.7,113.7,0,0,1-5.5,35.769C346.45,202.9,346.7,177.646,346.7,177.646Z" transform="translate(-322.079 -133.702)" fill="#cc3f44"/>
      <path id="Path_143" data-name="Path 143" d="M396.011,148.147s-2.464-.928-1.432-4.776.673-5.032.343-5.837,1.552-1.419,2,1.464l.443,2.883s2.889-5.4,5.244-6.591,1.163,4.692.373,8.768S397.936,149.467,396.011,148.147Z" transform="translate(-323.786 -132.694)" fill="#ffbe8f"/>
      <path id="Path_144" data-name="Path 144" d="M371.039,266.21a5.1,5.1,0,0,0-4.744,3.188,3.7,3.7,0,0,0-.319,2.544,3.053,3.053,0,0,0,3,2.286h5.023a3.067,3.067,0,0,0,3.071-3.554,4.359,4.359,0,0,0-.455-1.277A5.99,5.99,0,0,0,371.039,266.21Z" transform="translate(-323.028 -136.186)" fill="#003c5e"/>
      <path id="Path_145" data-name="Path 145" d="M351.908,265.409a5.1,5.1,0,0,0-4.538,3.476,3.692,3.692,0,0,0-.162,2.559,3.053,3.053,0,0,0,3.131,2.1l5.013-.311a3.067,3.067,0,0,0,2.846-3.737,4.367,4.367,0,0,0-.532-1.246A5.992,5.992,0,0,0,351.908,265.409Z" transform="translate(-322.527 -136.164)" fill="#003c5e"/>
    </g>
  </g>
  <g id="Group_103" data-name="Group 103" transform="translate(45.664 167.422)">
    <g id="Group_97" data-name="Group 97" transform="translate(26.246 8.019)">
      <path id="Path_146" data-name="Path 146" d="M108.475,262.937c2.938,3.864,6.355,11.457,1.6,19.909-3,5.329-11.065,4.1-16.532-1.809a16.036,16.036,0,0,1-2.679-18.149C93.3,258.328,103.765,256.74,108.475,262.937Z" transform="translate(-89.18 -258.858)" fill="#ffbe8f"/>
      <g id="Group_96" data-name="Group 96" transform="translate(9.48 22.119)">
        <path id="Path_147" data-name="Path 147" d="M103.594,296.116a3.9,3.9,0,0,1-3.8-3.055c-1.622-7.344-.566-10.642-.2-11.478l7.144,3.1a1.181,1.181,0,0,0,.1-.253c-.006.019-.531,1.986.566,6.953a3.9,3.9,0,0,1-2.962,4.642A3.985,3.985,0,0,1,103.594,296.116Z" transform="translate(-98.919 -281.583)" fill="#ffbe8f"/>
      </g>
    </g>
    <g id="Group_98" data-name="Group 98" transform="translate(2.519 11.344)">
      <path id="Path_148" data-name="Path 148" d="M65.307,262.274a30.236,30.236,0,0,0,1.462,16.181,28.687,28.687,0,0,0,2.943,5.68,31.462,31.462,0,0,0,7.893,8.1,33.066,33.066,0,0,0,5.561,3.22c2.271,1.006,4.092,1.2,5.374.824a3.319,3.319,0,0,0,2.324-2.835c.559-2.988-.633-4.456-4.159-5.972a36.935,36.935,0,0,1-4.431-2.247,25.939,25.939,0,0,1-11.389-14.147,47.822,47.822,0,0,1-2-8.7Z" transform="translate(-64.804 -262.274)" fill="#ffbe8f"/>
    </g>
    <g id="Group_100" data-name="Group 100" transform="translate(52.798 3.655)">
      <path id="Path_149" data-name="Path 149" d="M154.62,281.043c.143-.861.731-2.01,2.576-3.013,3.5-1.9,4.112-2.978,4.469-3.772s2.1.148.313,2.456l-1.263,1.632Z" transform="translate(-117.476 -254.897)" fill="#ffbe8f"/>
      <path id="Path_150" data-name="Path 150" d="M162.127,276.808h0a.823.823,0,0,1-.82-.821V263.83a.823.823,0,0,1,.82-.822h0a.823.823,0,0,1,.821.822v12.157A.823.823,0,0,1,162.127,276.808Z" transform="translate(-117.654 -254.605)" fill="#003757"/>
      <path id="Path_151" data-name="Path 151" d="M161.307,263.83h0a.823.823,0,0,1,.82-.822h11.24a.824.824,0,0,1,.822.822h0a.824.824,0,0,1-.822.821h-11.24A.823.823,0,0,1,161.307,263.83Z" transform="translate(-117.654 -254.605)" fill="#003757"/>
      <path id="Path_152" data-name="Path 152" d="M173.675,256.323h0a.824.824,0,0,1,.822.822v6.508a.824.824,0,0,1-.822.821h0a.824.824,0,0,1-.821-.821v-6.508A.824.824,0,0,1,173.675,256.323Z" transform="translate(-117.962 -254.427)" fill="#003757"/>
      <path id="Path_153" data-name="Path 153" d="M174.28,257.144h0a.824.824,0,0,1-.822.821h-7.927a.823.823,0,0,1-.821-.821h0a.823.823,0,0,1,.821-.822h7.927A.824.824,0,0,1,174.28,257.144Z" transform="translate(-117.745 -254.427)" fill="#003757"/>
      <rect id="Rectangle_32" data-name="Rectangle 32" width="16.871" height="5.435" rx="1.779" transform="translate(36.038)" fill="#70c6db"/>
      <path id="Path_154" data-name="Path 154" d="M162.08,290.433h0a2.575,2.575,0,0,1-2.568-2.568v-15.2a2.575,2.575,0,0,1,2.568-2.568h0a2.575,2.575,0,0,1,2.568,2.568v15.2A2.575,2.575,0,0,1,162.08,290.433Z" transform="translate(-117.607 -254.794)" fill="#005c91"/>
      <path id="Path_155" data-name="Path 155" d="M160.714,278.456l-.522.675s5.906-1.626,8.39-.737-1.774,5.7-6.22,6.66c-5.548,1.2-7.275-.281-7.644-2.586a2.568,2.568,0,0,1-.1-1.314Z" transform="translate(-117.475 -255.008)" fill="#ffbe8f"/>
      <g id="Group_99" data-name="Group 99" transform="translate(0 25.174)">
        <path id="Path_156" data-name="Path 156" d="M156.074,280.238c-4.833,1.13-12.477,3.08-19.4,4.323-6.925,1.27-13.078,1.877-14.656,2.053-4.092.49-5.643,1.853-5.554,4.871.086,2.99,2.163,4.331,6.6,3.8a100.078,100.078,0,0,0,15.39-3.459c7.123-2.161,14.734-5.474,19.011-8.281Z" transform="translate(-116.459 -280.238)" fill="#ffbe8f"/>
      </g>
    </g>
    <g id="Group_101" data-name="Group 101" transform="translate(43.258 97.552)">
      <path id="Path_157" data-name="Path 157" d="M115.579,405.631a67.916,67.916,0,0,0,2.713-12.292,144.28,144.28,0,0,0,1.144-14.691,190.16,190.16,0,0,0-.5-20.393c-.582-5.7-2.826-7.9-6.988-7.325s-5.737,3.064-5.178,8.542c.214,2.119,1.3,10.282,2.2,19.519.448,4.618.823,9.494,1.1,14.012.306,4.527.364,8.65.544,11.863Z" transform="translate(-106.658 -350.842)" fill="#ffbe8f"/>
    </g>
    <g id="Group_102" data-name="Group 102" transform="translate(8.942 92.984)">
      <path id="Path_158" data-name="Path 158" d="M71.4,387.03a21.69,21.69,0,0,0,6.064.642A22.153,22.153,0,0,0,84.8,386.09a25.3,25.3,0,0,0,10.019-7.414,21.278,21.278,0,0,0,1.293-1.718c.1-.15.206-.285.309-.449l.3-.534.59-1.079a36.557,36.557,0,0,0,2.531-7.378c.511-2.211.9-4.252,1.16-6.035.54-3.577.762-6.207.823-7.3.3-5.623-1.656-8.04-5.848-8.04-4.219,0-6.078,2.15-6.358,7.342-.056,1-.127,3.451-.336,6.671-.094,1.618-.268,3.4-.489,5.262a33.1,33.1,0,0,1-1.049,5.22l-.164.461-.075.239c-.036.089-.1.192-.143.287a12.678,12.678,0,0,1-.635,1.17,17.432,17.432,0,0,1-1.568,2.244,19.1,19.1,0,0,1-4.045,3.693,18.892,18.892,0,0,1-4.707,2.275,29,29,0,0,1-4.6,1.016Z" transform="translate(-71.402 -346.149)" fill="#ffbe8f"/>
    </g>
    <path id="Path_159" data-name="Path 159" d="M109.939,287.567c-1.053.165-12.028,3.055-20.172-.747a20.264,20.264,0,0,0-5.385,11.565,25.5,25.5,0,0,0,6.4,1.346s9.229,6.437,3.138,20.441c-7.211,16.576-9.08,32.363-12.24,36.839,0,0,19.974,7.724,41.013,0,0,0-.546-22.166-7.253-36.839-5.019-10.978,1.592-13.143,1.752-20.7a9.155,9.155,0,0,0,4.848-1.821s1.486-9.172-2.808-11.718C119.237,285.93,113.946,286.935,109.939,287.567Z" transform="translate(-62.734 -251.561)" fill="#ff595f"/>
    <path id="Path_160" data-name="Path 160" d="M68.008,264.984s2.615-.31,2.535-4.293.553-5.048,1.066-5.751-1.167-1.75-2.288.944L68.2,258.577s-1.511-5.937-3.513-7.655-2.253,4.276-2.463,8.423S65.824,265.8,68.008,264.984Z" transform="translate(-62.215 -250.62)" fill="#ffbe8f"/>
    <path id="Path_161" data-name="Path 161" d="M110.589,403.647s4.511.936,6.129,0a11.009,11.009,0,0,0,5.618.936c3.4-.256,5.7.189,5.278,2.179s-13.094,3.827-16.344,2.247c-1.75-.851-.681-5.789-.681-5.789" transform="translate(-63.496 -254.686)" fill="#003757"/>
    <path id="Path_162" data-name="Path 162" d="M74.829,382.267s-2.421,3.921-2.093,5.76a11.013,11.013,0,0,0-2.8,4.961c-.923,3.288-2.125,5.3-3.851,4.217s.873-13.614,3.469-16.128c1.4-1.354,5.673,1.336,5.673,1.336" transform="translate(-62.304 -254.086)" fill="#003757"/>
    <path id="Path_163" data-name="Path 163" d="M110.1,265.7s-8.281,10.026-10.11,29.813c0,0-9.81,2.495-16.461-1.5,0,0-1.331-32.635,11.306-36.022S110.1,265.7,110.1,265.7Z" transform="translate(-62.782 -250.799)" fill="#003c5e"/>
    <path id="Path_164" data-name="Path 164" d="M109.518,270.027s-1.5-3.513-4.324-2.349.044,7.815,2.6,7.815S109.518,270.027,109.518,270.027Z" transform="translate(-63.33 -251.068)" fill="#ffbe8f"/>
  </g>
  <g id="Group_113" data-name="Group 113" transform="translate(227.173 165.777)">
    <g id="Group_105" data-name="Group 105" transform="translate(23.13 31.902)">
      <path id="Path_165" data-name="Path 165" d="M276.568,286.059c-3.449,4.291-6.513,12.791-1.387,22.519,3.233,6.132,11.373,7.073,17.751.547s6.21-17.333,3.6-22.577S282.1,279.179,276.568,286.059Z" transform="translate(-272.458 -281.705)" fill="#ffbe8f"/>
      <g id="Group_104" data-name="Group 104" transform="translate(6.276 23.615)">
        <path id="Path_166" data-name="Path 166" d="M283.322,325.1a4.419,4.419,0,0,1-4.206-5.76,21.043,21.043,0,0,0,.36-8.245,4.415,4.415,0,0,1,8.711-1.441c.116.693,1.08,6.93-.66,12.375A4.419,4.419,0,0,1,283.322,325.1Z" transform="translate(-278.905 -305.966)" fill="#ffbe8f"/>
      </g>
    </g>
    <g id="Group_106" data-name="Group 106" transform="translate(49.301 30.389)">
      <path id="Path_167" data-name="Path 167" d="M309.377,280.338c-.472,2.646-.679,6.1-1.219,9.765-.121.918-.211,1.857-.345,2.8-.155.932-.31,1.873-.466,2.815-.249,1.9-.711,3.726-1.073,5.516a45.968,45.968,0,0,1-2.948,8.939,12.339,12.339,0,0,1-.771,1.519,13.306,13.306,0,0,1-.684,1.2c-.457.631-.743,1.184-.96,1.4a6.36,6.36,0,0,0-1.556,3.224,11.98,11.98,0,0,0,.608,3.871,3.1,3.1,0,0,0,3.371,2.494c1.71-.1,3.867-1.356,5.56-3.73a22.109,22.109,0,0,0,1.465-2.33,19.677,19.677,0,0,0,.893-1.821,18.511,18.511,0,0,0,.9-2.186,46.439,46.439,0,0,0,2.484-11.193,75.979,75.979,0,0,0-1.2-22.466Z" transform="translate(-299.345 -280.151)" fill="#ffbe8f"/>
    </g>
    <path id="Path_168" data-name="Path 168" d="M260.347,282.606c.954-.267,2.178-1.068,3.085-3.271,1.719-4.178,2.859-5,3.71-5.5s-.422-2.348-2.806-.055l-1.687,1.622Z" transform="translate(-249.004 -249.562)" fill="#ffbe8f"/>
    <rect id="Rectangle_33" data-name="Rectangle 33" width="23.446" height="23.446" rx="5.581" transform="translate(7.547 0) rotate(18.777)" fill="#baf1ff"/>
    <path id="Path_169" data-name="Path 169" d="M262.5,275.218l-.7.671s1.117-6.856-.188-9.549-6.205,2.692-6.753,7.82c-.683,6.4,1.2,8.167,3.843,8.3a2.91,2.91,0,0,0,1.494-.046Z" transform="translate(-248.854 -249.374)" fill="#ffbe8f"/>
    <g id="Group_107" data-name="Group 107" transform="translate(38.771 0)">
      <path id="Path_170" data-name="Path 170" d="M309.995,282.606c-.954-.267-2.177-1.068-3.085-3.271-1.719-4.178-2.858-5-3.71-5.5s.422-2.348,2.807-.055l1.687,1.622Z" transform="translate(-288.911 -249.562)" fill="#ffbe8f"/>
      <rect id="Rectangle_34" data-name="Rectangle 34" width="23.446" height="23.446" rx="5.581" transform="translate(7.547 0) rotate(18.777)" fill="#ff9cbd"/>
      <path id="Path_171" data-name="Path 171" d="M307.824,275.218l.7.671s-1.116-6.856.188-9.549,6.205,2.692,6.753,7.82c.684,6.4-1.2,8.167-3.843,8.3a2.911,2.911,0,0,1-1.494-.046Z" transform="translate(-289.041 -249.375)" fill="#ffbe8f"/>
    </g>
    <g id="Group_108" data-name="Group 108" transform="translate(5.021 31.127)">
      <path id="Path_172" data-name="Path 172" d="M255.507,280.909c-.327,1.211-.65,2.628-.964,4.193a21.177,21.177,0,0,0-.352,2.463c-.086.861-.173,1.745-.262,2.647s-.051,1.841-.073,2.786c.016.946-.042,1.908.052,2.872s.174,1.94.261,2.9c.066.97.308,1.923.46,2.873a37.283,37.283,0,0,0,3.316,10.021,19.24,19.24,0,0,0,1.006,1.861c.339.561.613,1.089.929,1.525.618.881,1.07,1.549,1.382,1.912,1.546,1.916,3.2,2.875,4.6,3a3.708,3.708,0,0,0,3.51-2.045c1.808-2.938,1.753-4.606-.417-7.2-.217-.243-.548-.714-1.032-1.3-.248-.289-.469-.671-.749-1.055a13.861,13.861,0,0,1-.857-1.3,34.495,34.495,0,0,1-3.471-7.524c-.228-.758-.554-1.5-.726-2.3-.2-.8-.409-1.6-.614-2.4-.224-.8-.314-1.636-.486-2.447-.134-.819-.354-1.62-.432-2.43q-.158-1.215-.31-2.379c-.106-.776-.238-1.531-.275-2.265-.123-1.466-.272-2.823-.448-4.013Z" transform="translate(-253.852 -280.909)" fill="#ffbe8f"/>
    </g>
    <path id="Path_173" data-name="Path 173" d="M270.781,371.661s4.384,9.291,14.422,9.946c12.981.848,16.05-5.029,14.438-15.648C299.641,365.959,278.886,362.376,270.781,371.661Z" transform="translate(-249.282 -252.03)" fill="#ff595f"/>
    <path id="Path_174" data-name="Path 174" d="M307.784,430.737a5.782,5.782,0,0,0-5.387,3.6,4.192,4.192,0,0,0-.368,2.885,3.462,3.462,0,0,0,3.393,2.6l5.694.012a3.477,3.477,0,0,0,3.49-4.023,4.939,4.939,0,0,0-.512-1.448A6.793,6.793,0,0,0,307.784,430.737Z" transform="translate(-250.112 -253.774)" fill="#003757"/>
    <g id="Group_110" data-name="Group 110" transform="translate(40.946 115.912)">
      <g id="Group_109" data-name="Group 109">
        <path id="Path_175" data-name="Path 175" d="M310.364,430.854c.307-7.773-.564-20.236-1.9-31.38-1.293-11.145-3.073-20.972-3.645-23.508-1.458-6.556-4.326-8.864-8.93-7.633s-6.015,4.294-4.606,10.631c.6,2.452,2.895,11.907,5.5,22.608,2.627,10.726,5.5,22.747,7.951,30.086Z" transform="translate(-290.761 -368.015)" fill="#ff595f"/>
      </g>
    </g>
    <path id="Path_176" data-name="Path 176" d="M269.206,432.04a5.783,5.783,0,0,0-5.336,3.679,4.3,4.3,0,0,0,.431,4.508l1.9.941,7.67-.092a2.329,2.329,0,0,0,2.288-2.039,5.627,5.627,0,0,0-.595-3.458A6.8,6.8,0,0,0,269.206,432.04Z" transform="translate(-249.086 -253.809)" fill="#003757"/>
    <g id="Group_112" data-name="Group 112" transform="translate(17.821 114.756)">
      <g id="Group_111" data-name="Group 111">
        <path id="Path_177" data-name="Path 177" d="M273.314,432.666c1.947-7.727,3.981-20.315,6.018-31.436,1.013-5.561,2.029-10.749,2.935-14.8s1.666-6.97,1.956-8.172c.758-3.105.885-5.363.26-7.112a6.41,6.41,0,0,0-4.254-3.8c-2.237-.81-4.124-.71-5.733.527s-2.889,3.6-3.745,7.113c-.328,1.355-1.017,4.664-1.644,9.073s-1.192,9.915-1.558,15.727c-.743,11.628-.744,24.5.091,32.47Z" transform="translate(-267.002 -366.828)" fill="#ff595f"/>
      </g>
    </g>
    <path id="Path_178" data-name="Path 178" d="M280.515,317.479c1.193.191,7.35,3.21,20.38-11.22,0,0,6.278,7.872,7.169,16.028,0,0-3.48,4.647-8.446,4.509,0,0-1.822,24.084,5.048,41.9a41.71,41.71,0,0,1-34.169,1.393s.087-17.578-.326-39.129c0,0-5.743-2.036-10.018-10.271,0,0,2.852-8.087,7.727-10.964C267.881,309.725,275.974,316.754,280.515,317.479Z" transform="translate(-248.999 -250.457)" fill="#baf1ff"/>
    <path id="Path_179" data-name="Path 179" d="M273.938,293.951s-1-3.969-4.191-3.205-1.25,8.287,1.458,8.711S273.938,293.951,273.938,293.951Z" transform="translate(-249.211 -250.041)" fill="#ffbe8f"/>
    <path id="Path_180" data-name="Path 180" d="M297,295.132s1.543-3.792,4.594-2.594.092,8.38-2.648,8.425S297,295.132,297,295.132Z" transform="translate(-249.978 -250.085)" fill="#ffbe8f"/>
    <path id="Path_181" data-name="Path 181" d="M271.8,290.077a13.45,13.45,0,0,1,11.262-10.133c9.537-1.434,14.45,2.316,15.857,10.8s-4.439,16.943-13.6,16.508A14.18,14.18,0,0,1,271.8,290.077Z" transform="translate(-249.302 -249.748)" fill="#003c5e"/>
  </g>
  <g id="Group_114" data-name="Group 114" transform="translate(336.083 301.119)">
    <rect id="Rectangle_35" data-name="Rectangle 35" width="63.048" height="48.349" transform="translate(14.647 10.51)" fill="#005c91"/>
    <path id="Path_182" data-name="Path 182" d="M392.424,387.977l-16.791,10.51h63.048l-16.791-10.51Z" transform="translate(-360.986 -387.977)" fill="#003c5e"/>
    <rect id="Rectangle_36" data-name="Rectangle 36" width="29.465" height="10.51" transform="translate(31.438)" fill="#133447"/>
    <path id="Path_183" data-name="Path 183" d="M375.633,398.775l9.078,11.357h44.412l9.557-11.357Z" transform="translate(-360.986 -388.265)" fill="#00cfff"/>
    <path id="Path_184" data-name="Path 184" d="M423.156,387.977l16.791,5.255,13.139,8.981-13.139-3.726Z" transform="translate(-362.252 -387.977)" fill="#00cfff"/>
    <path id="Path_185" data-name="Path 185" d="M392.023,387.977l-18.3,5.255-13.139,8.981,14.647-3.726Z" transform="translate(-360.585 -387.977)" fill="#00cfff"/>
  </g>
</svg>
