<svg xmlns="http://www.w3.org/2000/svg" viewBox="0 0 74.94 74.94"><g id="Layer_2" data-name="Layer 2"><g id="Objects"><path d="M57.48,32.53a8.74,8.74,0,0,0-8.75-8.75H26.21a8.75,8.75,0,0,0-8.76,8.75v9.88a8.75,8.75,0,0,0,8.76,8.75H48.73a8.74,8.74,0,0,0,8.75-8.75ZM45.1,37.73,35,42.7c-.39.21-1.76-.08-1.76-.52V32c0-.45,1.38-.73,1.78-.51l9.62,5.23C45.06,36.93,45.51,37.51,45.1,37.73Z"/><path d="M37.47,0A37.47,37.47,0,1,0,74.94,37.47,37.51,37.51,0,0,0,37.47,0Zm0,70.13A32.66,32.66,0,1,1,70.13,37.47,32.7,32.7,0,0,1,37.47,70.13Z"/></g></g></svg>